<svg width="382" height="159" viewBox="0 0 382 159" fill="none" xmlns="http://www.w3.org/2000/svg">
<path d="M325.653 71.9609C327.009 62.0029 325.509 56.1424 324.708 47.0244C339.548 67.9858 363.864 102.799 372.394 82.124L376.567 72.0225C376.412 80.3668 376.531 88.765 382 95.4453V159H1.9458C0.944953 158.113 -0.386936 156.861 0.105957 156.831L4.42236 156.523L269.6 137.755L254.164 124.928C264.687 127.776 270.278 130.522 283.433 130.174C268.469 110.872 247.935 97.0612 232.046 78.6611L278.973 89.0498C277.37 79.5629 272.868 75.9364 266.886 69.0312L273.279 69.625L262.735 0L325.653 71.9609Z" fill="#D9FF00"/>
</svg>
