<svg width="104" height="20" viewBox="0 0 104 20" fill="none" xmlns="http://www.w3.org/2000/svg">
<g clip-path="url(#clip0_200_2142)">
<path d="M50.2792 0V5.05711C50.2792 5.43354 49.659 7.37539 49.467 7.87643C48.9116 9.32503 47.9229 10.662 46.929 11.838C47.8788 13.1646 48.8753 14.4522 49.4384 16.0125C49.8251 17.0794 50.5258 19.0628 49.89 19.9688H45.481C44.7959 18.3307 44.6064 16.6199 43.1454 15.3037C41.6844 13.9875 40.8981 15.3297 39.1282 15.0415V19.9688H34.2002V4.79751L39.5175 0H50.2792ZM45.0917 4.92731H39.1282V10.1142C42.1722 9.90654 44.5623 7.94652 45.0917 4.92731Z" fill="#D9FF00"/>
<path d="M104 0V5.05711C104 5.43354 103.38 7.37539 103.188 7.87643C102.632 9.32503 101.644 10.662 100.65 11.838C101.6 13.1646 102.596 14.4522 103.159 16.0125C103.546 17.0794 104.246 19.0628 103.611 19.9688H99.2017C98.5166 18.3307 98.3271 16.6199 96.8661 15.3037C95.4051 13.9875 94.6188 15.3297 92.8489 15.0415V19.9688H87.9209V4.79751L93.2382 0H104ZM98.8124 4.92731H92.8489V10.1142C95.893 9.90654 98.283 7.94652 98.8124 4.92731Z" fill="#D9FF00"/>
<path d="M20.7318 0V15.0415C22.73 14.7534 24.6011 13.8837 25.7714 12.1729C25.9557 11.9029 26.6953 10.418 26.6953 10.244V0H31.8828V19.9688H26.6953V18.1542C25.3822 18.972 22.1098 20.3583 20.6566 19.9169C19.7016 19.6288 16.6783 15.6568 15.5469 14.9117V0H20.7344H20.7318Z" fill="#D9FF00"/>
<path d="M57.7844 7.91018C57.7844 7.97508 57.2913 8.25545 57.6572 8.29958H58.0387L62.0611 1.03842H67.8948V5.57632C67.2071 6.48754 64.6899 5.60488 64.0463 6.00727L62.183 9.71443C65.4061 11.0722 67.887 14.1796 68.5565 17.622C68.6811 18.2632 69.0262 19.5561 68.5435 19.9688H63.7453C63.8283 16.568 61.1891 13.7902 57.7818 13.7461V19.582L57.3925 19.9714H52.5942V0H57.3925C57.7273 0.218069 57.7818 0.815161 57.7818 1.16822C57.7818 3.40862 57.8596 5.67497 57.7818 7.91018H57.7844Z" fill="#D9FF00"/>
<path d="M85.4116 0V4.92731H74.2606V8.55659C76.7 7.11838 79.4715 6.5161 82.3001 6.74195V11.6693C80.2422 11.5628 77.86 11.8536 76.3418 13.3541C76.3418 13.7591 79.1315 15.0389 79.5779 15.0389H85.4116V19.9663H78.7994C78.366 19.9663 75.8747 19.0447 75.3272 18.7695C69.9009 16.0436 68.7435 10.5036 69.3871 4.84943L74.1334 0H85.4142H85.4116Z" fill="#D9FF00"/>
<path d="M4.92804 0L4.91506 14.1459L5.3173 15.0415H13.2245V19.9688H5.05779L0 14.9117V0H4.92804Z" fill="#D9FF00"/>
</g>
<defs>
<clipPath id="clip0_200_2142">
<rect width="104" height="20" fill="white"/>
</clipPath>
</defs>
</svg>
