<svg width="40" height="40" viewBox="0 0 40 40" fill="none" xmlns="http://www.w3.org/2000/svg">
<mask id="mask0_77_6375" style="mask-type:alpha" maskUnits="userSpaceOnUse" x="0" y="0" width="40" height="40">
<rect width="40" height="40" fill="#D9D9D9"/>
</mask>
<g mask="url(#mask0_77_6375)">
<path d="M20.0002 36.6667C19.0835 36.6667 18.2988 36.3403 17.646 35.6875C16.9933 35.0347 16.6669 34.25 16.6669 33.3334H23.3335C23.3335 34.25 23.0071 35.0347 22.3544 35.6875C21.7016 36.3403 20.9169 36.6667 20.0002 36.6667ZM6.66687 31.6667V28.3334H10.0002V16.6667C10.0002 14.3611 10.6946 12.3125 12.0835 10.5209C13.4724 8.72919 15.278 7.55558 17.5002 7.00003V5.83336C17.5002 5.13891 17.7433 4.54864 18.2294 4.06253C18.7155 3.57641 19.3058 3.33336 20.0002 3.33336C20.6946 3.33336 21.2849 3.57641 21.771 4.06253C22.2571 4.54864 22.5002 5.13891 22.5002 5.83336V6.37503C22.1946 6.98614 21.9724 7.61114 21.8335 8.25003C21.6946 8.88891 21.6391 9.54169 21.6669 10.2084C21.3891 10.1528 21.1183 10.1042 20.8544 10.0625C20.5905 10.0209 20.3058 10 20.0002 10C18.1669 10 16.5974 10.6528 15.2919 11.9584C13.9863 13.2639 13.3335 14.8334 13.3335 16.6667V28.3334H26.6669V17.625C27.1669 17.8472 27.7016 18.0209 28.271 18.1459C28.8405 18.2709 29.4169 18.3334 30.0002 18.3334V28.3334H33.3335V31.6667H6.66687Z" fill="white"/>
<path d="M25.0005 10.0001C25.0005 11.3889 25.4866 12.5695 26.4588 13.5417C27.431 14.5139 28.6116 15.0001 30.0005 15.0001C31.3894 15.0001 32.5699 14.5139 33.5422 13.5417C34.5144 12.5695 35.0005 11.3889 35.0005 10.0001C35.0005 8.61117 34.5144 7.43062 33.5422 6.45839C32.5699 5.48617 31.3894 5.00006 30.0005 5.00006C28.6116 5.00006 27.431 5.48617 26.4588 6.45839C25.4866 7.43062 25.0005 8.61117 25.0005 10.0001Z" fill="#D9FF00"/>
</g>
</svg>
