<svg width="40" height="40" viewBox="0 0 40 40" fill="none" xmlns="http://www.w3.org/2000/svg">
<mask id="mask0_77_6222" style="mask-type:alpha" maskUnits="userSpaceOnUse" x="0" y="0" width="40" height="40">
<rect width="40" height="40" fill="#D9D9D9"/>
</mask>
<g mask="url(#mask0_77_6222)">
<path d="M6.66687 31.6667V28.3334H10.0002V16.6667C10.0002 14.3611 10.6946 12.3125 12.0835 10.5209C13.4724 8.72919 15.278 7.55558 17.5002 7.00003V5.83336C17.5002 5.13891 17.7433 4.54864 18.2294 4.06253C18.7155 3.57641 19.3058 3.33336 20.0002 3.33336C20.6946 3.33336 21.2849 3.57641 21.771 4.06253C22.2571 4.54864 22.5002 5.13891 22.5002 5.83336V7.00003C24.7224 7.55558 26.528 8.72919 27.9169 10.5209C29.3058 12.3125 30.0002 14.3611 30.0002 16.6667V28.3334H33.3335V31.6667H6.66687ZM20.0002 36.6667C19.0835 36.6667 18.2988 36.3403 17.646 35.6875C16.9933 35.0347 16.6669 34.25 16.6669 33.3334H23.3335C23.3335 34.25 23.0071 35.0347 22.3544 35.6875C21.7016 36.3403 20.9169 36.6667 20.0002 36.6667ZM13.3335 28.3334H26.6669V16.6667C26.6669 14.8334 26.0141 13.2639 24.7085 11.9584C23.403 10.6528 21.8335 10 20.0002 10C18.1669 10 16.5974 10.6528 15.2919 11.9584C13.9863 13.2639 13.3335 14.8334 13.3335 16.6667V28.3334Z" fill="white"/>
</g>
</svg>
