<?xml version="1.0" encoding="utf-8"?>
<!-- Generator: Adobe Illustrator 30.3.0, SVG Export Plug-In . SVG Version: 9.03 Build 0)  -->
<svg version="1.0" id="Layer_2" xmlns="http://www.w3.org/2000/svg" xmlns:xlink="http://www.w3.org/1999/xlink" x="0px" y="0px"
	 viewBox="0 0 450 450" style="enable-background:new 0 0 450 450;" xml:space="preserve">
<style type="text/css">
	.st0{opacity:0.5;}
	.st1{fill:#0B934F;}
	.st2{opacity:0.3;}
	.st3{opacity:0.5;fill:#36A14A;}
</style>
<g class="st0">
	<g>
		<path class="st1" d="M1199.6,445h-440V5h440V445z M760.7,444h438V6h-438V444z"/>
	</g>
	<g>
		<rect x="760.2" y="370.8" class="st1" width="439" height="1"/>
	</g>
	<g>
		<rect x="760.2" y="297.7" class="st1" width="439" height="1"/>
	</g>
	<g>
		<rect x="760.2" y="224.5" class="st1" width="439" height="1"/>
	</g>
	<g>
		<rect x="760.2" y="151.3" class="st1" width="439" height="1"/>
	</g>
	<g>
		<rect x="760.2" y="78.2" class="st1" width="439" height="1"/>
	</g>
	<g>
		<rect x="1125.4" y="5.5" class="st1" width="1" height="439"/>
	</g>
	<g>
		<rect x="1052.3" y="5.5" class="st1" width="1" height="439"/>
	</g>
	<g>
		<rect x="979.1" y="5.5" class="st1" width="1" height="439"/>
	</g>
	<g>
		<rect x="905.9" y="5.5" class="st1" width="1" height="439"/>
	</g>
	<g>
		<rect x="832.8" y="5.5" class="st1" width="1" height="439"/>
	</g>
</g>
<g class="st2">
	<path class="st1" d="M1477.7,5h-220v220h220h220V5H1477.7z M1477.2,41.6h-36.1V5.5h36.1V41.6z M1367.9,78.1v-36h36.1v36H1367.9z
		 M1404,78.7v36.1h-36.1V78.7H1404z M1367.4,78.1h-36.1v-36h36.1V78.1z M1367.4,78.7v36.1h-36.1V78.7H1367.4z M1330.8,114.7h-36
		V78.7h36V114.7z M1330.8,115.3v36.1h-36v-36.1H1330.8z M1331.3,115.3h36.1v36.1h-36.1V115.3z M1367.4,151.9v36h-36.1v-36H1367.4z
		 M1367.9,151.9h36.1v36h-36.1V151.9z M1367.9,151.3v-36.1h36.1v36.1H1367.9z M1404.5,115.3h36v36.1h-36V115.3z M1404.5,114.7V78.7
		h36v36.1H1404.5z M1404.5,78.1v-36h36v36H1404.5z M1404.5,41.6V5.5h36v36.1H1404.5z M1404,41.6h-36.1V5.5h36.1V41.6z M1367.4,41.6
		h-36.1V5.5h36.1V41.6z M1330.8,41.6h-36V5.5h36V41.6z M1330.8,42.1v36h-36v-36H1330.8z M1294.3,78.1h-36.1v-36h36.1V78.1z
		 M1294.3,78.7v36.1h-36.1V78.7H1294.3z M1294.3,115.3v36.1h-36.1v-36.1H1294.3z M1294.3,151.9v36h-36.1v-36H1294.3z M1294.8,151.9
		h36v36h-36V151.9z M1330.8,188.4v36.1h-36v-36.1H1330.8z M1331.3,188.4h36.1v36.1h-36.1V188.4z M1367.9,188.4h36.1v36.1h-36.1
		V188.4z M1404.5,188.4h36v36.1h-36V188.4z M1404.5,187.9v-36h36v36H1404.5z M1441.1,151.9h36.1v36h-36.1V151.9z M1441.1,151.3
		v-36.1h36.1v36.1H1441.1z M1441.1,114.7V78.7h36.1v36.1H1441.1z M1441.1,78.1v-36h36.1v36H1441.1z M1294.3,5.5v36.1h-36.1V5.5
		H1294.3z M1258.2,188.4h36.1v36.1h-36.1V188.4z M1441.1,224.5v-36.1h36.1v36.1H1441.1z M1697.2,41.6h-36.1V5.5h36.1V41.6z
		 M1587.9,78.1v-36h36.1v36H1587.9z M1624,78.7v36.1h-36.1V78.7H1624z M1587.4,78.1h-36.1v-36h36.1V78.1z M1587.4,78.7v36.1h-36.1
		V78.7H1587.4z M1550.8,114.7h-36V78.7h36V114.7z M1550.8,115.3v36.1h-36v-36.1H1550.8z M1551.3,115.3h36.1v36.1h-36.1V115.3z
		 M1587.4,151.9v36h-36.1v-36H1587.4z M1587.9,151.9h36.1v36h-36.1V151.9z M1587.9,151.3v-36.1h36.1v36.1H1587.9z M1624.5,115.3h36
		v36.1h-36V115.3z M1624.5,114.7V78.7h36v36.1H1624.5z M1624.5,78.1v-36h36v36H1624.5z M1624.5,41.6V5.5h36v36.1H1624.5z M1624,41.6
		h-36.1V5.5h36.1V41.6z M1587.4,41.6h-36.1V5.5h36.1V41.6z M1550.8,41.6h-36V5.5h36V41.6z M1550.8,42.1v36h-36v-36H1550.8z
		 M1514.3,78.1h-36.1v-36h36.1V78.1z M1514.3,78.7v36.1h-36.1V78.7H1514.3z M1514.3,115.3v36.1h-36.1v-36.1H1514.3z M1514.3,151.9
		v36h-36.1v-36H1514.3z M1514.8,151.9h36v36h-36V151.9z M1550.8,188.4v36.1h-36v-36.1H1550.8z M1551.3,188.4h36.1v36.1h-36.1V188.4z
		 M1587.9,188.4h36.1v36.1h-36.1V188.4z M1624.5,188.4h36v36.1h-36V188.4z M1624.5,187.9v-36h36v36H1624.5z M1661.1,151.9h36.1v36
		h-36.1V151.9z M1661.1,151.3v-36.1h36.1v36.1H1661.1z M1661.1,114.7V78.7h36.1v36.1H1661.1z M1661.1,78.1v-36h36.1v36H1661.1z
		 M1514.3,5.5v36.1h-36.1V5.5H1514.3z M1478.2,188.4h36.1v36.1h-36.1V188.4z M1661.1,224.5v-36.1h36.1v36.1H1661.1z"/>
	<path class="st1" d="M1257.7,225v220h220h220V225h-220H1257.7z M1477.2,261.6h-36.1v-36.1h36.1V261.6z M1367.9,298.1v-36h36.1v36
		H1367.9z M1404,298.7v36.1h-36.1v-36.1H1404z M1367.4,298.1h-36.1v-36h36.1V298.1z M1367.4,298.7v36.1h-36.1v-36.1H1367.4z
		 M1330.8,334.7h-36v-36.1h36V334.7z M1330.8,335.3v36.1h-36v-36.1H1330.8z M1331.3,335.3h36.1v36.1h-36.1V335.3z M1367.4,371.9v36
		h-36.1v-36H1367.4z M1367.9,371.9h36.1v36h-36.1V371.9z M1367.9,371.3v-36.1h36.1v36.1H1367.9z M1404.5,335.3h36v36.1h-36V335.3z
		 M1404.5,334.7v-36.1h36v36.1H1404.5z M1404.5,298.1v-36h36v36H1404.5z M1404.5,261.6v-36.1h36v36.1H1404.5z M1404,261.6h-36.1
		v-36.1h36.1V261.6z M1367.4,261.6h-36.1v-36.1h36.1V261.6z M1330.8,261.6h-36v-36.1h36V261.6z M1330.8,262.1v36h-36v-36H1330.8z
		 M1294.3,298.1h-36.1v-36h36.1V298.1z M1294.3,298.7v36.1h-36.1v-36.1H1294.3z M1294.3,335.3v36.1h-36.1v-36.1H1294.3z
		 M1294.3,371.9v36h-36.1v-36H1294.3z M1294.8,371.9h36v36h-36V371.9z M1330.8,408.4v36.1h-36v-36.1H1330.8z M1331.3,408.4h36.1
		v36.1h-36.1V408.4z M1367.9,408.4h36.1v36.1h-36.1V408.4z M1404.5,408.4h36v36.1h-36V408.4z M1404.5,407.9v-36h36v36H1404.5z
		 M1441.1,371.9h36.1v36h-36.1V371.9z M1441.1,371.3v-36.1h36.1v36.1H1441.1z M1441.1,334.7v-36.1h36.1v36.1H1441.1z M1441.1,298.1
		v-36h36.1v36H1441.1z M1294.3,225.5v36.1h-36.1v-36.1H1294.3z M1258.2,408.4h36.1v36.1h-36.1V408.4z M1441.1,444.5v-36.1h36.1v36.1
		H1441.1z M1478.2,408.4h36.1v36.1h-36.1V408.4z M1587.4,371.9v36h-36.1v-36H1587.4z M1551.3,371.3v-36.1h36.1v36.1H1551.3z
		 M1587.9,371.9h36.1v36h-36.1V371.9z M1587.9,371.3v-36.1h36.1v36.1H1587.9z M1624.5,335.3h36v36.1h-36V335.3z M1624.5,334.7v-36.1
		h36v36.1H1624.5z M1624,334.7h-36.1v-36.1h36.1V334.7z M1587.9,298.1v-36h36.1v36H1587.9z M1587.4,298.1h-36.1v-36h36.1V298.1z
		 M1587.4,298.7v36.1h-36.1v-36.1H1587.4z M1550.8,334.7h-36v-36.1h36V334.7z M1550.8,335.3v36.1h-36v-36.1H1550.8z M1550.8,371.9
		v36h-36v-36H1550.8z M1550.8,408.4v36.1h-36v-36.1H1550.8z M1551.3,408.4h36.1v36.1h-36.1V408.4z M1587.9,408.4h36.1v36.1h-36.1
		V408.4z M1624.5,408.4h36v36.1h-36V408.4z M1624.5,407.9v-36h36v36H1624.5z M1661.1,371.9h36.1v36h-36.1V371.9z M1661.1,371.3
		v-36.1h36.1v36.1H1661.1z M1661.1,334.7v-36.1h36.1v36.1H1661.1z M1661.1,298.1v-36h36.1v36H1661.1z M1660.6,298.1h-36v-36h36
		V298.1z M1624.5,261.6v-36.1h36v36.1H1624.5z M1624,261.6h-36.1v-36.1h36.1V261.6z M1587.4,261.6h-36.1v-36.1h36.1V261.6z
		 M1550.8,261.6h-36v-36.1h36V261.6z M1550.8,262.1v36h-36v-36H1550.8z M1514.3,298.1h-36.1v-36h36.1V298.1z M1514.3,298.7v36.1
		h-36.1v-36.1H1514.3z M1514.3,335.3v36.1h-36.1v-36.1H1514.3z M1514.3,371.9v36h-36.1v-36H1514.3z M1661.1,444.5v-36.1h36.1v36.1
		H1661.1z M1697.2,261.6h-36.1v-36.1h36.1V261.6z M1514.3,225.5v36.1h-36.1v-36.1H1514.3z"/>
</g>
<path class="st3" d="M347.7,102C315,69.3,271.4,51.2,225.1,51.2c-46.3,0-89.9,18-122.6,50.7c-32.7,32.7-50.7,76.3-50.7,122.6
	c0,46.3,18,89.9,50.7,122.6c32.7,32.7,76.3,50.7,122.6,50.7c46.3,0,89.9-18,122.6-50.7c32.7-32.7,50.7-76.3,50.7-122.6
	C398.4,178.2,380.4,134.7,347.7,102z M388.3,224.3c0-9.4-0.8-18.7-2.4-27.8l9.4-1.7c1.7,9.6,2.6,19.4,2.6,29.5H388.3z M255.3,224.3
	h-9.6c0-1-0.1-2-0.3-3l9.4-1.7C255.2,221.1,255.3,222.7,255.3,224.3z M254.9,229.5l-9.4-1.7c0.2-1,0.3-2,0.3-3h9.6
	C255.3,226.5,255.2,228,254.9,229.5z M194.9,224.9h9.6c0,1,0.1,2,0.3,3l-9.4,1.7C195.1,228,194.9,226.5,194.9,224.9z M195.3,219.6
	l9.4,1.7c-0.2,1-0.3,2-0.3,3h-9.6C194.9,222.7,195.1,221.1,195.3,219.6z M244,231.2c-0.1,0.2-0.1,0.4-0.2,0.5l0,0
	c-0.4,0.9-0.8,1.8-1.2,2.7l0,0c-0.1,0.2-0.2,0.3-0.3,0.5l0,0c-0.5,0.8-1.1,1.7-1.7,2.4l0,0c-0.1,0.1-0.3,0.3-0.4,0.4l0,0
	c-0.6,0.7-1.3,1.4-2.1,2.1l0,0c-0.1,0.1-0.3,0.3-0.4,0.4l0,0c-0.8,0.6-1.6,1.2-2.4,1.7c-0.2,0.1-0.3,0.2-0.5,0.3
	c-0.8,0.5-1.7,0.9-2.7,1.2l0,0c-0.2,0.1-0.4,0.1-0.5,0.2l0,0c-0.9,0.3-1.7,0.6-2.6,0.7c-0.1,0-0.1,0-0.2,0c-0.2,0-0.4,0.1-0.6,0.1
	c-1,0.2-1.9,0.3-2.9,0.3c-0.1,0-0.2,0-0.3,0s-0.2,0-0.3,0c-1,0-2-0.1-2.9-0.3c-0.2,0-0.4-0.1-0.6-0.1c-1-0.2-1.9-0.4-2.8-0.8
	c-0.2-0.1-0.4-0.1-0.5-0.2c-0.9-0.4-1.8-0.8-2.7-1.2c-0.2-0.1-0.3-0.2-0.5-0.3c-0.8-0.5-1.7-1.1-2.4-1.7c-0.1-0.1-0.3-0.2-0.4-0.4
	c-0.7-0.6-1.4-1.3-2.1-2.1c-0.1-0.1-0.3-0.3-0.4-0.4c-0.6-0.8-1.2-1.6-1.7-2.4c-0.1-0.2-0.2-0.3-0.3-0.5c-0.5-0.8-0.9-1.7-1.2-2.7
	l0,0c-0.1-0.2-0.1-0.4-0.2-0.5l0,0c-0.3-0.9-0.6-1.9-0.8-2.8l0,0c0-0.2-0.1-0.4-0.1-0.6l0,0c-0.2-1-0.3-1.9-0.3-2.9
	c0-0.1,0-0.2,0-0.3c0-0.1,0-0.2,0-0.3c0-1,0.1-2,0.3-2.9c0-0.2,0.1-0.4,0.1-0.6c0.2-1,0.4-1.9,0.8-2.8c0.1-0.2,0.1-0.4,0.2-0.5
	c0.4-0.9,0.8-1.8,1.3-2.6c0.1-0.2,0.2-0.3,0.3-0.5c0.5-0.8,1.1-1.6,1.7-2.4c0.1-0.1,0.2-0.3,0.4-0.4c0.6-0.7,1.3-1.4,2.1-2.1
	c0.1-0.1,0.3-0.2,0.4-0.4c0.8-0.6,1.6-1.2,2.4-1.7c0.2-0.1,0.3-0.2,0.5-0.3c0.8-0.5,1.7-0.9,2.7-1.2c0.2-0.1,0.4-0.1,0.5-0.2
	c0.9-0.3,1.9-0.6,2.8-0.8l0,0c0.1,0,0.2-0.1,0.4-0.1h0c1.7-0.5,3.8-0.5,5.9-0.1c0.2,0,0.5,0.1,0.7,0.1l0,0c0.2,0,0.4,0.1,0.6,0.1
	l0,0c1,0.2,1.9,0.4,2.8,0.8c0.2,0.1,0.4,0.1,0.5,0.2c0.9,0.4,1.8,0.8,2.7,1.2c0.2,0.1,0.3,0.2,0.5,0.3c0.8,0.5,1.6,1.1,2.4,1.7
	c0.1,0.1,0.3,0.2,0.4,0.4c0.7,0.6,1.4,1.3,2.1,2.1c0.1,0.1,0.2,0.3,0.4,0.4c0.6,0.8,1.2,1.5,1.7,2.4c0.1,0.2,0.2,0.3,0.3,0.5
	c0.5,0.8,0.9,1.7,1.3,2.6c0.1,0.2,0.1,0.4,0.2,0.5c0.3,0.9,0.6,1.8,0.8,2.8c0,0.2,0.1,0.4,0.1,0.6c0.2,1,0.2,1.9,0.3,2.9
	c0,0.1,0,0.2,0,0.3c0,0.1,0,0.2,0,0.3c0,1-0.1,2-0.3,2.9c0,0.2,0,0.4-0.1,0.6c0,0.1,0,0.2,0,0.2C244.6,229.5,244.4,230.3,244,231.2
	L244,231.2z M244.6,217.8l9-3.3c0.5,1.5,0.9,3,1.2,4.5l-9.4,1.7C245.2,219.7,244.9,218.7,244.6,217.8z M244.4,217.3
	c-0.4-1-0.8-1.9-1.3-2.8l8.3-4.8c0.8,1.4,1.4,2.8,2,4.3L244.4,217.3z M242.8,214c-0.5-0.9-1.1-1.7-1.7-2.5l7.3-6.2
	c1,1.2,1.9,2.5,2.7,3.8L242.8,214z M240.7,211.1c-0.7-0.8-1.4-1.5-2.1-2.1l6.2-7.3c1.2,1,2.3,2.1,3.3,3.3L240.7,211.1z M238.2,208.6
	c-0.8-0.6-1.6-1.2-2.5-1.7l4.8-8.3c1.4,0.8,2.6,1.7,3.8,2.7L238.2,208.6z M235.2,206.6c-0.9-0.5-1.8-0.9-2.8-1.3l3.3-9
	c1.5,0.6,2.9,1.2,4.3,2L235.2,206.6z M231.9,205.1c-0.9-0.3-1.9-0.6-2.9-0.8l1.7-9.4c1.6,0.3,3.1,0.7,4.5,1.2L231.9,205.1z
	 M228.4,204.2c-1-0.2-2-0.3-3-0.3v-9.6c1.6,0,3.2,0.2,4.7,0.4L228.4,204.2z M224.8,203.9c-1,0-2,0.1-3,0.3l-1.7-9.4
	c1.5-0.3,3.1-0.4,4.7-0.4V203.9z M221.3,204.3c-1,0.2-2,0.5-2.9,0.8l-3.3-9c1.5-0.5,3-0.9,4.5-1.2L221.3,204.3z M217.8,205.3
	c-1,0.4-1.9,0.8-2.8,1.3l-4.8-8.3c1.4-0.8,2.8-1.4,4.3-2L217.8,205.3z M214.6,206.9c-0.9,0.5-1.7,1.1-2.5,1.7l-6.2-7.3
	c1.2-1,2.5-1.9,3.8-2.7L214.6,206.9z M211.6,209c-0.8,0.7-1.5,1.4-2.1,2.1l-7.3-6.2c1-1.2,2.1-2.3,3.3-3.3L211.6,209z M209.1,211.5
	c-0.6,0.8-1.2,1.6-1.7,2.5l-8.3-4.8c0.8-1.4,1.7-2.6,2.7-3.8L209.1,211.5z M207.1,214.5c-0.5,0.9-0.9,1.8-1.3,2.7l-9-3.3
	c0.6-1.5,1.2-2.9,2-4.3L207.1,214.5z M205.6,217.8c-0.3,0.9-0.6,1.9-0.8,2.9l-9.4-1.7c0.3-1.6,0.7-3.1,1.2-4.5L205.6,217.8z
	 M204.8,228.4c0.2,1,0.5,2,0.8,2.9l-9,3.3c-0.5-1.5-0.9-3-1.2-4.5L204.8,228.4z M205.8,231.9c0.4,1,0.8,1.9,1.3,2.8l-8.3,4.8
	c-0.8-1.4-1.4-2.8-2-4.3L205.8,231.9z M207.4,235.1c0.5,0.9,1.1,1.7,1.7,2.5l-7.3,6.2c-1-1.2-1.9-2.5-2.7-3.8L207.4,235.1z
	 M209.5,238c0.7,0.8,1.4,1.5,2.1,2.1l-6.2,7.3c-1.2-1-2.3-2.1-3.3-3.3L209.5,238z M212.1,240.6c0.8,0.6,1.6,1.2,2.5,1.7l-4.8,8.3
	c-1.4-0.8-2.6-1.7-3.8-2.7L212.1,240.6z M215,242.6c0.9,0.5,1.8,0.9,2.8,1.3l-3.3,9c-1.5-0.6-2.9-1.2-4.3-2L215,242.6z M218.3,244.1
	c0.9,0.3,1.9,0.6,2.9,0.8l-1.7,9.4c-1.6-0.3-3.1-0.7-4.5-1.2L218.3,244.1z M221.8,244.9c1,0.2,2,0.3,3,0.3v9.6
	c-1.6,0-3.2-0.2-4.7-0.4L221.8,244.9z M225.4,245.2c1,0,2-0.1,3-0.3l1.7,9.4c-1.5,0.3-3.1,0.4-4.7,0.4V245.2z M229,244.8
	c1-0.2,2-0.5,2.9-0.8l3.3,9c-1.5,0.5-3,0.9-4.5,1.2L229,244.8z M232.4,243.9c1-0.4,1.9-0.8,2.8-1.3l4.8,8.3c-1.4,0.8-2.8,1.4-4.3,2
	L232.4,243.9z M235.7,242.3c0.9-0.5,1.7-1.1,2.5-1.7l6.2,7.3c-1.2,1-2.5,1.9-3.8,2.7L235.7,242.3z M238.6,240.2
	c0.8-0.7,1.5-1.4,2.1-2.1l7.3,6.2c-1,1.2-2.1,2.3-3.3,3.3L238.6,240.2z M241.1,237.6c0.6-0.8,1.2-1.6,1.7-2.5l8.3,4.8
	c-0.8,1.4-1.7,2.6-2.7,3.8L241.1,237.6z M243.1,234.6c0.5-0.9,0.9-1.8,1.3-2.8l9,3.3c-0.6,1.5-1.2,2.9-2,4.3L243.1,234.6z
	 M244.6,231.4c0.3-0.9,0.6-1.9,0.8-2.9l9.4,1.7c-0.3,1.6-0.7,3.1-1.2,4.5L244.6,231.4z M254.1,214.3l9.1-3.3c0.7,2,1.3,4.1,1.7,6.2
	l-9.5,1.7C255.1,217.4,254.7,215.8,254.1,214.3z M253.9,213.8c-0.6-1.5-1.3-3-2-4.3l8.4-4.8c1.1,1.9,2,3.8,2.8,5.9L253.9,213.8z
	 M251.6,208.9c-0.8-1.4-1.7-2.7-2.7-3.9l7.4-6.2c1.4,1.7,2.6,3.4,3.7,5.3L251.6,208.9z M248.5,204.6c-1-1.2-2.2-2.4-3.4-3.4l6.2-7.4
	c1.7,1.4,3.2,2.9,4.6,4.6L248.5,204.6z M244.7,200.8c-1.2-1-2.5-1.9-3.9-2.7l4.8-8.4c1.9,1.1,3.6,2.3,5.3,3.7L244.7,200.8z
	 M240.3,197.8c-1.4-0.8-2.8-1.5-4.3-2l3.3-9.1c2,0.8,4,1.7,5.9,2.8L240.3,197.8z M235.4,195.6c-1.5-0.5-3-0.9-4.6-1.2l1.7-9.5
	c2.1,0.4,4.2,1,6.2,1.7L235.4,195.6z M230.2,194.2c-1.6-0.3-3.2-0.4-4.8-0.4v-9.7c2.2,0,4.4,0.2,6.5,0.6L230.2,194.2z M224.8,193.8
	c-1.6,0-3.2,0.2-4.8,0.4l-1.7-9.5c2.1-0.4,4.3-0.6,6.5-0.6V193.8z M219.5,194.3c-1.6,0.3-3.1,0.7-4.6,1.2l-3.3-9.1
	c2-0.7,4.1-1.3,6.3-1.7L219.5,194.3z M214.3,195.7c-1.5,0.6-3,1.3-4.3,2l-4.8-8.4c1.9-1.1,3.8-2,5.9-2.8L214.3,195.7z M209.5,198.1
	c-1.4,0.8-2.7,1.7-3.9,2.7l-6.2-7.4c1.7-1.4,3.4-2.6,5.3-3.7L209.5,198.1z M205.1,201.2c-1.2,1-2.4,2.2-3.4,3.4l-7.4-6.2
	c1.4-1.7,2.9-3.2,4.6-4.6L205.1,201.2z M201.4,205c-1,1.2-1.9,2.5-2.8,3.9l-8.4-4.8c1.1-1.9,2.3-3.6,3.7-5.3L201.4,205z
	 M198.3,209.4c-0.8,1.4-1.5,2.8-2,4.3l-9.1-3.3c0.8-2,1.7-4,2.8-5.9L198.3,209.4z M196.1,214.3c-0.5,1.5-0.9,3-1.2,4.6l-9.5-1.7
	c0.4-2.1,1-4.2,1.7-6.2L196.1,214.3z M194.8,219.5c-0.3,1.6-0.4,3.2-0.4,4.8h-9.7c0-2.2,0.2-4.4,0.6-6.5L194.8,219.5z M194.3,224.9
	c0,1.6,0.2,3.2,0.4,4.8l-9.5,1.7c-0.4-2.1-0.6-4.3-0.6-6.5H194.3z M194.9,230.2c0.3,1.6,0.7,3.1,1.2,4.6l-9.1,3.3
	c-0.7-2-1.3-4.1-1.7-6.3L194.9,230.2z M196.3,235.4c0.6,1.5,1.3,3,2,4.3l-8.4,4.8c-1.1-1.9-2-3.8-2.8-5.9L196.3,235.4z M198.6,240.2
	c0.8,1.4,1.7,2.7,2.7,3.9l-7.4,6.2c-1.4-1.7-2.6-3.4-3.7-5.3L198.6,240.2z M201.7,244.6c1,1.2,2.2,2.4,3.4,3.4l-6.2,7.4
	c-1.7-1.4-3.2-2.9-4.6-4.6L201.7,244.6z M205.6,248.3c1.2,1,2.5,1.9,3.9,2.8l-4.8,8.4c-1.9-1.1-3.6-2.3-5.3-3.7L205.6,248.3z
	 M210,251.4c1.4,0.8,2.8,1.5,4.3,2l-3.3,9.1c-2-0.8-4-1.7-5.9-2.8L210,251.4z M214.9,253.6c1.5,0.5,3,0.9,4.6,1.2l-1.7,9.5
	c-2.1-0.4-4.2-1-6.3-1.7L214.9,253.6z M220,254.9c1.6,0.3,3.2,0.4,4.8,0.4v9.7c-2.2,0-4.4-0.2-6.5-0.6L220,254.9z M225.4,255.4
	c1.6,0,3.2-0.2,4.8-0.4l1.7,9.5c-2.1,0.4-4.3,0.6-6.5,0.6V255.4z M230.7,254.8c1.6-0.3,3.1-0.7,4.6-1.2l3.3,9.1
	c-2,0.7-4.1,1.3-6.2,1.7L230.7,254.8z M235.9,253.4c1.5-0.6,3-1.2,4.3-2l4.8,8.4c-1.9,1.1-3.8,2-5.9,2.8L235.9,253.4z M240.7,251.1
	c1.4-0.8,2.7-1.7,3.9-2.8l6.2,7.4c-1.7,1.4-3.4,2.6-5.3,3.7L240.7,251.1z M245.1,248c1.2-1,2.4-2.2,3.4-3.4l7.4,6.2
	c-1.4,1.6-2.9,3.2-4.6,4.6L245.1,248z M248.9,244.1c1-1.2,1.9-2.5,2.7-3.9l8.4,4.8c-1.1,1.9-2.3,3.6-3.7,5.3L248.9,244.1z
	 M251.9,239.7c0.8-1.4,1.5-2.8,2-4.3l9.1,3.3c-0.8,2-1.7,4-2.8,5.9L251.9,239.7z M254.1,234.8c0.5-1.5,0.9-3,1.2-4.6l9.5,1.7
	c-0.4,2.1-1,4.2-1.7,6.3L254.1,234.8z M255.5,229.6c0.3-1.6,0.4-3.2,0.4-4.8h9.7c0,2.2-0.2,4.4-0.6,6.5L255.5,229.6z M255.9,224.3
	c0-1.6-0.2-3.2-0.4-4.8l9.5-1.7c0.4,2.1,0.5,4.3,0.6,6.5H255.9z M263.7,210.8l9-3.3c0.9,2.6,1.6,5.2,2.1,8l-9.4,1.7
	C265,215,264.5,212.9,263.7,210.8z M263.6,210.3c-0.8-2.1-1.7-4.1-2.8-6l8.3-4.8c1.4,2.4,2.5,4.9,3.5,7.5L263.6,210.3z M260.5,203.8
	c-1.1-1.9-2.4-3.7-3.8-5.4l7.3-6.1c1.8,2.1,3.3,4.4,4.7,6.8L260.5,203.8z M256.3,198c-1.4-1.7-3-3.2-4.7-4.7l6.1-7.3
	c2.1,1.8,4.1,3.7,5.8,5.8L256.3,198z M251.2,193c-1.7-1.4-3.5-2.7-5.4-3.8l4.8-8.3c2.4,1.4,4.6,3,6.8,4.7L251.2,193z M245.4,188.9
	c-1.9-1.1-3.9-2-6-2.8l3.3-9c2.6,1,5.1,2.1,7.5,3.5L245.4,188.9z M238.9,185.9c-2-0.7-4.2-1.3-6.3-1.7l1.7-9.4
	c2.7,0.5,5.4,1.2,8,2.1L238.9,185.9z M232,184.1c-2.1-0.4-4.3-0.6-6.6-0.6V174c2.8,0,5.5,0.3,8.2,0.7L232,184.1z M224.8,183.6
	c-2.2,0-4.4,0.2-6.6,0.6l-1.7-9.4c2.7-0.5,5.4-0.7,8.2-0.7V183.6z M217.7,184.2c-2.2,0.4-4.3,1-6.3,1.7l-3.3-9
	c2.6-0.9,5.2-1.6,8-2.1L217.7,184.2z M210.8,186.1c-2.1,0.8-4.1,1.7-6,2.8l-4.8-8.3c2.4-1.4,4.9-2.5,7.5-3.5L210.8,186.1z
	 M204.4,189.2c-1.9,1.1-3.7,2.4-5.4,3.8l-6.1-7.3c2.1-1.8,4.4-3.3,6.8-4.7L204.4,189.2z M198.6,193.4c-1.7,1.4-3.2,3-4.7,4.7
	l-7.3-6.1c1.8-2.1,3.7-4.1,5.8-5.8L198.6,193.4z M193.5,198.4c-1.4,1.7-2.7,3.5-3.8,5.4l-8.3-4.8c1.4-2.4,3-4.6,4.7-6.8L193.5,198.4
	z M189.5,204.3c-1.1,1.9-2,3.9-2.8,6l-9-3.3c1-2.6,2.1-5.1,3.5-7.5L189.5,204.3z M186.5,210.8c-0.7,2-1.3,4.2-1.7,6.3l-9.4-1.7
	c0.5-2.7,1.2-5.4,2.1-8L186.5,210.8z M184.7,217.7c-0.4,2.1-0.6,4.3-0.6,6.6h-9.6c0-2.8,0.3-5.5,0.7-8.2L184.7,217.7z M184.1,224.9
	c0,2.2,0.2,4.4,0.6,6.6l-9.4,1.7c-0.5-2.7-0.7-5.4-0.7-8.2H184.1z M184.8,232c0.4,2.2,1,4.3,1.7,6.3l-9,3.3c-0.9-2.6-1.6-5.2-2.1-8
	L184.8,232z M186.7,238.9c0.8,2.1,1.7,4.1,2.8,6l-8.3,4.8c-1.4-2.4-2.5-4.9-3.5-7.5L186.7,238.9z M189.8,245.3
	c1.1,1.9,2.4,3.7,3.8,5.4l-7.3,6.1c-1.8-2.1-3.3-4.4-4.7-6.7L189.8,245.3z M193.9,251.1c1.4,1.7,3,3.2,4.7,4.7l-6.1,7.3
	c-2.1-1.8-4.1-3.7-5.8-5.8L193.9,251.1z M199,256.2c1.7,1.4,3.5,2.7,5.4,3.8l-4.8,8.3c-2.4-1.4-4.6-3-6.8-4.7L199,256.2z
	 M204.9,260.2c1.9,1.1,3.9,2,6,2.8l-3.3,9c-2.6-1-5.1-2.1-7.5-3.5L204.9,260.2z M211.4,263.2c2,0.7,4.2,1.3,6.3,1.7l-1.7,9.4
	c-2.7-0.5-5.4-1.2-8-2.1L211.4,263.2z M218.3,265c2.1,0.4,4.3,0.6,6.6,0.6v9.6c-2.8,0-5.5-0.3-8.2-0.7L218.3,265z M225.4,265.6
	c2.2,0,4.4-0.2,6.6-0.6l1.7,9.4c-2.7,0.5-5.4,0.7-8.2,0.7V265.6z M232.5,264.9c2.2-0.4,4.3-1,6.3-1.7l3.3,9c-2.6,0.9-5.2,1.6-8,2.1
	L232.5,264.9z M239.4,263c2.1-0.8,4.1-1.7,6-2.8l4.8,8.3c-2.4,1.4-4.9,2.5-7.5,3.5L239.4,263z M245.9,259.9c1.9-1.1,3.7-2.4,5.4-3.8
	l6.1,7.3c-2.1,1.8-4.4,3.3-6.8,4.7L245.9,259.9z M251.7,255.8c1.7-1.4,3.2-3,4.7-4.7l7.3,6.1c-1.8,2.1-3.7,4.1-5.8,5.8L251.7,255.8z
	 M256.7,250.7c1.4-1.7,2.7-3.5,3.8-5.4l8.3,4.8c-1.4,2.4-3,4.6-4.7,6.7L256.7,250.7z M260.8,244.8c1.1-1.9,2-3.9,2.8-6l9,3.3
	c-1,2.6-2.1,5.1-3.5,7.5L260.8,244.8z M263.7,238.3c0.7-2,1.3-4.2,1.7-6.3l9.4,1.7c-0.5,2.7-1.2,5.4-2.1,8L263.7,238.3z
	 M265.5,231.4c0.4-2.1,0.6-4.3,0.6-6.6h9.6c0,2.8-0.3,5.5-0.7,8.2L265.5,231.4z M266.1,224.3c0-2.2-0.2-4.4-0.6-6.6l9.4-1.7
	c0.5,2.7,0.7,5.4,0.7,8.2H266.1z M273.3,207.4l9.1-3.3c1.1,3.1,2,6.3,2.6,9.7l-9.5,1.7C274.9,212.6,274.2,209.9,273.3,207.4z
	 M273.1,206.8c-1-2.6-2.2-5.2-3.5-7.6l8.4-4.8c1.7,2.9,3.1,5.9,4.3,9.1L273.1,206.8z M269.3,198.8c-1.4-2.4-3-4.7-4.8-6.8l7.4-6.2
	c2.1,2.6,4.1,5.3,5.7,8.2L269.3,198.8z M264.1,191.5c-1.8-2.1-3.8-4.1-5.9-5.9l6.2-7.4c2.6,2.2,4.9,4.5,7.1,7.1L264.1,191.5z
	 M257.8,185.2c-2.1-1.8-4.4-3.4-6.8-4.8l4.8-8.4c2.9,1.7,5.6,3.6,8.2,5.7L257.8,185.2z M250.4,180.2c-2.4-1.4-4.9-2.6-7.6-3.5
	l3.3-9.1c3.2,1.2,6.2,2.6,9.1,4.3L250.4,180.2z M242.3,176.4c-2.6-0.9-5.3-1.6-8-2.2l1.7-9.5c3.3,0.6,6.6,1.5,9.7,2.6L242.3,176.4z
	 M233.7,174.2c-2.7-0.5-5.5-0.7-8.3-0.7v-9.7c3.4,0,6.7,0.3,10,0.9L233.7,174.2z M224.8,173.4c-2.8,0-5.6,0.3-8.3,0.7l-1.7-9.5
	c3.3-0.6,6.6-0.9,10-0.9V173.4z M215.9,174.3c-2.8,0.5-5.5,1.2-8.1,2.2l-3.3-9.1c3.1-1.1,6.4-2,9.7-2.6L215.9,174.3z M207.4,176.6
	c-2.6,1-5.2,2.2-7.6,3.5l-4.8-8.4c2.9-1.7,5.9-3.1,9.1-4.3L207.4,176.6z M199.3,180.4c-2.4,1.4-4.7,3-6.8,4.8l-6.2-7.4
	c2.6-2.1,5.3-4.1,8.2-5.7L199.3,180.4z M192.1,185.6c-2.1,1.8-4.1,3.8-5.9,5.9l-7.4-6.2c2.2-2.6,4.5-4.9,7.1-7.1L192.1,185.6z
	 M185.8,191.9c-1.8,2.1-3.4,4.4-4.8,6.8l-8.4-4.8c1.7-2.9,3.6-5.6,5.7-8.2L185.8,191.9z M180.7,199.3c-1.4,2.4-2.6,4.9-3.5,7.6
	l-9.1-3.3c1.2-3.2,2.6-6.2,4.3-9.1L180.7,199.3z M177,207.4c-0.9,2.6-1.6,5.3-2.2,8.1l-9.5-1.7c0.6-3.3,1.5-6.6,2.6-9.7L177,207.4z
	 M174.7,216c-0.5,2.7-0.7,5.5-0.7,8.3h-9.7c0-3.4,0.3-6.7,0.9-10L174.7,216z M174,224.9c0,2.8,0.3,5.6,0.7,8.3l-9.5,1.7
	c-0.6-3.3-0.9-6.6-0.9-10H174z M174.8,233.7c0.5,2.8,1.2,5.5,2.2,8.1l-9.1,3.3c-1.1-3.1-2-6.3-2.6-9.7L174.8,233.7z M177.1,242.3
	c1,2.6,2.2,5.2,3.5,7.6l-8.4,4.8c-1.7-2.9-3.1-5.9-4.3-9.1L177.1,242.3z M181,250.4c1.4,2.4,3,4.7,4.8,6.8l-7.4,6.2
	c-2.1-2.6-4.1-5.3-5.7-8.2L181,250.4z M186.1,257.6c1.8,2.1,3.8,4.1,5.9,5.9l-6.2,7.4c-2.6-2.2-4.9-4.5-7.1-7.1L186.1,257.6z
	 M192.5,263.9c2.1,1.8,4.4,3.4,6.8,4.8l-4.8,8.4c-2.9-1.7-5.6-3.6-8.2-5.7L192.5,263.9z M199.8,269c2.4,1.4,4.9,2.6,7.6,3.5
	l-3.3,9.1c-3.2-1.2-6.2-2.6-9.1-4.3L199.8,269z M207.9,272.7c2.6,0.9,5.3,1.6,8.1,2.2l-1.7,9.5c-3.3-0.6-6.6-1.5-9.7-2.6
	L207.9,272.7z M216.5,275c2.7,0.5,5.5,0.7,8.3,0.7v9.7c-3.4,0-6.7-0.3-10-0.9L216.5,275z M225.4,275.7c2.8,0,5.6-0.3,8.3-0.7
	l1.7,9.5c-3.3,0.6-6.6,0.9-10,0.9V275.7z M234.3,274.9c2.8-0.5,5.5-1.2,8.1-2.2l3.3,9.1c-3.1,1.1-6.3,2-9.7,2.6L234.3,274.9z
	 M242.9,272.5c2.6-1,5.2-2.2,7.6-3.5l4.8,8.4c-2.9,1.7-5.9,3.1-9.1,4.3L242.9,272.5z M250.9,268.7c2.4-1.4,4.7-3,6.8-4.8l6.2,7.4
	c-2.6,2.1-5.3,4.1-8.2,5.8L250.9,268.7z M258.2,263.6c2.1-1.8,4.1-3.8,5.9-5.9l7.4,6.2c-2.2,2.6-4.5,4.9-7.1,7.1L258.2,263.6z
	 M264.5,257.2c1.8-2.1,3.4-4.4,4.8-6.8l8.4,4.8c-1.7,2.9-3.6,5.6-5.7,8.2L264.5,257.2z M269.5,249.9c1.4-2.4,2.6-4.9,3.5-7.6
	l9.1,3.3c-1.2,3.2-2.6,6.2-4.3,9.1L269.5,249.9z M273.3,241.8c0.9-2.6,1.6-5.3,2.2-8.1l9.5,1.7c-0.6,3.3-1.5,6.6-2.6,9.7
	L273.3,241.8z M275.5,233.2c0.5-2.7,0.7-5.5,0.7-8.3h9.7c0,3.4-0.3,6.7-0.9,10L275.5,233.2z M276.3,224.3c0-2.8-0.3-5.6-0.7-8.3
	l9.5-1.7c0.6,3.3,0.9,6.6,0.9,10H276.3z M282.9,203.9l9-3.3c1.3,3.7,2.3,7.5,3,11.4l-9.4,1.7C284.9,210.3,284,207,282.9,203.9z
	 M282.7,203.3c-1.2-3.2-2.6-6.3-4.3-9.2l8.3-4.8c2,3.4,3.6,7,5,10.7L282.7,203.3z M278.1,193.7c-1.7-2.9-3.6-5.7-5.8-8.3l7.3-6.1
	c2.5,3,4.8,6.2,6.8,9.7L278.1,193.7z M271.9,184.9c-2.2-2.6-4.6-5-7.2-7.2l6.1-7.3c3,2.6,5.8,5.3,8.4,8.4L271.9,184.9z M264.3,177.4
	c-2.6-2.2-5.4-4.1-8.3-5.8l4.8-8.3c3.4,2,6.6,4.2,9.7,6.8L264.3,177.4z M255.5,171.3c-2.9-1.7-6-3.1-9.2-4.3l3.3-9
	c3.7,1.4,7.3,3.1,10.7,5L255.5,171.3z M245.8,166.8c-3.1-1.1-6.4-2-9.8-2.6l1.7-9.4c3.9,0.7,7.7,1.7,11.4,3L245.8,166.8z
	 M235.5,164.1c-3.3-0.6-6.7-0.9-10.1-0.9v-9.6c4,0,7.9,0.4,11.8,1L235.5,164.1z M224.8,163.2c-3.4,0-6.8,0.3-10.1,0.9l-1.7-9.4
	c3.8-0.7,7.8-1,11.8-1V163.2z M214.2,164.2c-3.4,0.6-6.6,1.5-9.8,2.6l-3.3-9c3.7-1.3,7.5-2.3,11.4-3L214.2,164.2z M203.9,167
	c-3.2,1.2-6.3,2.6-9.2,4.3l-4.8-8.3c3.4-2,7-3.6,10.7-5L203.9,167z M194.2,171.6c-2.9,1.7-5.7,3.6-8.3,5.8l-6.1-7.3
	c3-2.5,6.2-4.8,9.7-6.8L194.2,171.6z M185.5,177.8c-2.6,2.2-5,4.6-7.2,7.2l-7.3-6.1c2.6-3,5.3-5.8,8.4-8.4L185.5,177.8z
	 M177.9,185.4c-2.2,2.6-4.1,5.4-5.8,8.3l-8.3-4.8c2-3.4,4.2-6.6,6.8-9.7L177.9,185.4z M171.8,194.2c-1.7,2.9-3.1,6-4.3,9.2l-9-3.3
	c1.4-3.7,3.1-7.3,5-10.7L171.8,194.2z M167.3,203.9c-1.1,3.1-2,6.4-2.6,9.8l-9.4-1.7c0.7-3.9,1.7-7.7,3-11.4L167.3,203.9z
	 M164.6,214.2c-0.6,3.3-0.9,6.7-0.9,10.1h-9.6c0-4,0.4-7.9,1-11.8L164.6,214.2z M163.8,224.9c0,3.4,0.3,6.8,0.9,10.1l-9.4,1.7
	c-0.7-3.8-1-7.8-1-11.8H163.8z M164.7,235.5c0.6,3.4,1.5,6.6,2.6,9.8l-9,3.3c-1.3-3.7-2.3-7.5-3-11.4L164.7,235.5z M167.5,245.8
	c1.2,3.2,2.6,6.3,4.3,9.2l-8.3,4.8c-2-3.4-3.6-7-5-10.7L167.5,245.8z M172.1,255.5c1.7,2.9,3.6,5.7,5.8,8.3l-7.3,6.1
	c-2.5-3-4.8-6.2-6.8-9.7L172.1,255.5z M178.3,264.2c2.2,2.6,4.6,5,7.2,7.2l-6.1,7.3c-3-2.6-5.8-5.3-8.4-8.4L178.3,264.2z
	 M185.9,271.8c2.6,2.2,5.4,4.1,8.3,5.8l-4.8,8.3c-3.4-2-6.6-4.2-9.7-6.8L185.9,271.8z M194.7,277.8c2.9,1.7,6,3.1,9.2,4.3l-3.3,9
	c-3.7-1.4-7.3-3.1-10.7-5L194.7,277.8z M204.4,282.3c3.1,1.1,6.4,2,9.8,2.6l-1.7,9.4c-3.9-0.7-7.7-1.7-11.4-3L204.4,282.3z
	 M214.7,285c3.3,0.6,6.7,0.9,10.1,0.9v9.6c-4,0-7.9-0.4-11.8-1L214.7,285z M225.4,285.9c3.4,0,6.8-0.3,10.1-0.9l1.7,9.4
	c-3.8,0.7-7.8,1-11.8,1V285.9z M236.1,284.9c3.4-0.6,6.6-1.5,9.8-2.6l3.3,9c-3.7,1.3-7.5,2.3-11.4,3L236.1,284.9z M246.4,282.1
	c3.2-1.2,6.3-2.6,9.2-4.3l4.8,8.3c-3.4,2-7,3.6-10.7,5L246.4,282.1z M256,277.6c2.9-1.7,5.7-3.7,8.3-5.8l6.1,7.3
	c-3,2.5-6.2,4.8-9.7,6.8L256,277.6z M264.7,271.4c2.6-2.2,5-4.6,7.2-7.2l7.3,6.1c-2.6,3-5.3,5.8-8.4,8.4L264.7,271.4z M272.3,263.8
	c2.2-2.6,4.1-5.4,5.8-8.3l8.3,4.8c-2,3.4-4.2,6.6-6.8,9.7L272.3,263.8z M278.4,255c1.7-2.9,3.1-6,4.3-9.2l9,3.3
	c-1.4,3.7-3.1,7.3-5,10.7L278.4,255z M282.9,245.3c1.1-3.1,2-6.4,2.6-9.8l9.4,1.7c-0.7,3.9-1.7,7.7-3,11.4L282.9,245.3z M285.6,235
	c0.6-3.3,0.9-6.7,0.9-10.1h9.6c0,4-0.4,7.9-1,11.8L285.6,235z M286.5,224.3c0-3.4-0.3-6.8-0.9-10.1l9.4-1.7c0.7,3.8,1,7.8,1,11.8
	H286.5z M292.4,200.4l9.1-3.3c1.5,4.2,2.7,8.6,3.5,13.1l-9.5,1.7C294.8,207.9,293.7,204.1,292.4,200.4z M292.2,199.9
	c-1.4-3.8-3.1-7.3-5.1-10.8l8.4-4.8c2.2,3.9,4.2,8,5.8,12.3L292.2,199.9z M286.9,188.6c-2-3.4-4.3-6.7-6.8-9.7l7.4-6.2
	c2.9,3.5,5.5,7.2,7.8,11.1L286.9,188.6z M279.7,178.4c-2.6-3-5.4-5.9-8.4-8.4l6.2-7.4c3.5,2.9,6.7,6.2,9.6,9.6L279.7,178.4z
	 M270.8,169.6c-3-2.5-6.3-4.8-9.7-6.8l4.8-8.4c3.9,2.3,7.6,4.9,11.1,7.8L270.8,169.6z M260.6,162.5c-3.4-2-7-3.7-10.8-5.1l3.3-9.1
	c4.3,1.6,8.4,3.5,12.3,5.8L260.6,162.5z M249.3,157.3c-3.7-1.3-7.5-2.4-11.5-3.1l1.7-9.5c4.5,0.8,8.9,2,13.1,3.5L249.3,157.3z
	 M237.3,154.1c-3.9-0.7-7.8-1-11.9-1v-9.7c4.6,0,9.1,0.4,13.5,1.2L237.3,154.1z M224.8,153.1c-4,0-8,0.4-11.9,1l-1.7-9.5
	c4.4-0.8,8.9-1.2,13.5-1.2V153.1z M212.4,154.2c-3.9,0.7-7.8,1.7-11.5,3.1l-3.3-9.1c4.2-1.5,8.6-2.7,13.1-3.5L212.4,154.2z
	 M200.4,157.5c-3.8,1.4-7.3,3.1-10.8,5.1l-4.8-8.4c3.9-2.2,8-4.2,12.3-5.8L200.4,157.5z M189.1,162.8c-3.4,2-6.7,4.3-9.7,6.8
	l-6.2-7.4c3.5-2.9,7.2-5.5,11.1-7.8L189.1,162.8z M179,170c-3,2.6-5.9,5.4-8.4,8.4l-7.4-6.2c2.9-3.5,6.2-6.7,9.6-9.6L179,170z
	 M170.2,178.9c-2.5,3-4.8,6.3-6.8,9.7l-8.4-4.8c2.3-3.9,4.9-7.6,7.8-11.1L170.2,178.9z M163.1,189.1c-2,3.4-3.7,7-5.1,10.8l-9.1-3.3
	c1.6-4.3,3.5-8.4,5.8-12.3L163.1,189.1z M157.8,200.4c-1.3,3.7-2.4,7.5-3.1,11.5l-9.5-1.7c0.8-4.5,2-8.9,3.5-13.1L157.8,200.4z
	 M154.7,212.4c-0.7,3.9-1,7.8-1,11.9H144c0-4.6,0.4-9.1,1.2-13.5L154.7,212.4z M153.6,224.9c0,4,0.4,8,1,11.9l-9.5,1.7
	c-0.8-4.4-1.2-8.9-1.2-13.5H153.6z M154.8,237.3c0.7,3.9,1.7,7.8,3.1,11.5l-9.1,3.3c-1.5-4.2-2.7-8.6-3.5-13.1L154.8,237.3z
	 M158,249.3c1.4,3.8,3.1,7.3,5.1,10.8l-8.4,4.8c-2.2-3.9-4.2-8-5.8-12.3L158,249.3z M163.4,260.6c2,3.4,4.3,6.7,6.8,9.7l-7.4,6.2
	c-2.9-3.5-5.5-7.2-7.8-11.1L163.4,260.6z M170.5,270.7c2.6,3,5.4,5.9,8.4,8.4l-6.2,7.4c-3.5-2.9-6.7-6.2-9.6-9.6L170.5,270.7z
	 M179.4,279.5c3,2.5,6.3,4.8,9.7,6.8l-4.8,8.4c-3.9-2.3-7.6-4.9-11.1-7.8L179.4,279.5z M189.6,286.6c3.4,2,7,3.7,10.8,5.1l-3.3,9.1
	c-4.3-1.6-8.4-3.5-12.3-5.8L189.6,286.6z M200.9,291.9c3.7,1.3,7.5,2.4,11.5,3.1l-1.7,9.5c-4.5-0.8-8.9-2-13.1-3.5L200.9,291.9z
	 M213,295c3.9,0.7,7.8,1,11.9,1v9.7c-4.6,0-9.1-0.4-13.5-1.2L213,295z M225.4,296.1c4,0,8-0.4,11.9-1l1.7,9.5
	c-4.4,0.8-8.9,1.2-13.5,1.2V296.1z M237.8,294.9c3.9-0.7,7.8-1.7,11.5-3.1l3.3,9.1c-4.2,1.5-8.6,2.7-13.1,3.5L237.8,294.9z
	 M249.8,291.7c3.8-1.4,7.3-3.1,10.8-5.1l4.8,8.4c-3.9,2.2-8,4.2-12.3,5.8L249.8,291.7z M261.1,286.3c3.4-2,6.7-4.3,9.7-6.8l6.2,7.4
	c-3.5,2.9-7.2,5.5-11.1,7.8L261.1,286.3z M271.3,279.1c3-2.6,5.9-5.4,8.4-8.4l7.4,6.2c-2.9,3.5-6.2,6.7-9.6,9.6L271.3,279.1z
	 M280.1,270.3c2.5-3,4.8-6.3,6.8-9.7l8.4,4.8c-2.3,3.9-4.9,7.6-7.8,11.1L280.1,270.3z M287.2,260.1c2-3.4,3.7-7,5.1-10.8l9.1,3.3
	c-1.6,4.3-3.5,8.4-5.8,12.3L287.2,260.1z M292.4,248.8c1.3-3.7,2.4-7.5,3.1-11.5l9.5,1.7c-0.8,4.5-2,8.9-3.5,13.1L292.4,248.8z
	 M295.6,236.7c0.7-3.9,1-7.8,1-11.9h9.7c0,4.6-0.4,9.1-1.2,13.5L295.6,236.7z M296.6,224.3c0-4-0.4-8-1-11.9l9.5-1.7
	c0.8,4.4,1.2,8.9,1.2,13.5H296.6z M302,196.9l9-3.3c1.7,4.8,3,9.7,4,14.8l-9.4,1.7C304.7,205.6,303.5,201.1,302,196.9z M301.8,196.4
	c-1.6-4.3-3.6-8.4-5.8-12.4l8.3-4.8c2.5,4.4,4.7,9.1,6.5,13.9L301.8,196.4z M295.7,183.5c-2.3-4-4.9-7.7-7.8-11.2l7.3-6.1
	c3.3,3.9,6.2,8.1,8.8,12.6L295.7,183.5z M287.5,171.9c-3-3.5-6.2-6.7-9.7-9.7l6.1-7.3c3.9,3.3,7.6,6.9,10.9,10.9L287.5,171.9z
	 M277.4,161.8c-3.5-2.9-7.2-5.5-11.2-7.8l4.8-8.3c4.4,2.6,8.6,5.5,12.6,8.8L277.4,161.8z M265.7,153.7c-3.9-2.3-8.1-4.2-12.4-5.8
	l3.3-9c4.8,1.8,9.5,4,13.9,6.5L265.7,153.7z M252.8,147.7c-4.2-1.5-8.7-2.7-13.2-3.5l1.7-9.4c5.1,0.9,10,2.2,14.8,4L252.8,147.7z
	 M239,144c-4.4-0.8-9-1.2-13.6-1.2v-9.6c5.2,0,10.3,0.5,15.3,1.4L239,144z M224.8,142.8c-4.6,0-9.2,0.4-13.6,1.2l-1.7-9.4
	c5-0.9,10.1-1.3,15.3-1.4V142.8z M210.6,144.1c-4.5,0.8-8.9,2-13.2,3.5l-3.3-9c4.8-1.7,9.7-3,14.8-4L210.6,144.1z M196.9,147.9
	c-4.3,1.6-8.4,3.6-12.4,5.8l-4.8-8.3c4.4-2.5,9.1-4.7,13.9-6.5L196.9,147.9z M184,154c-4,2.3-7.7,4.9-11.2,7.8l-6.1-7.3
	c3.9-3.3,8.1-6.2,12.6-8.8L184,154z M172.4,162.2c-3.5,3-6.7,6.2-9.7,9.7l-7.3-6.1c3.3-3.9,7-7.6,10.9-10.9L172.4,162.2z
	 M162.3,172.3c-2.9,3.5-5.5,7.2-7.8,11.2l-8.3-4.8c2.6-4.4,5.5-8.6,8.8-12.6L162.3,172.3z M154.2,184c-2.3,3.9-4.2,8.1-5.8,12.4
	l-9-3.3c1.8-4.8,4-9.5,6.5-13.9L154.2,184z M148.2,196.9c-1.5,4.2-2.7,8.7-3.5,13.2l-9.4-1.7c0.9-5.1,2.2-10,4-14.8L148.2,196.9z
	 M144.6,210.6c-0.8,4.4-1.2,9-1.2,13.6h-9.6c0-5.2,0.5-10.3,1.4-15.3L144.6,210.6z M143.4,224.9c0,4.6,0.4,9.2,1.2,13.6l-9.4,1.7
	c-0.9-5-1.3-10.1-1.4-15.3H143.4z M144.7,239.1c0.8,4.5,2,8.9,3.5,13.2l-9,3.3c-1.7-4.8-3-9.7-4-14.8L144.7,239.1z M148.4,252.8
	c1.6,4.3,3.6,8.4,5.8,12.4l-8.3,4.8c-2.5-4.4-4.7-9.1-6.5-13.9L148.4,252.8z M154.5,265.7c2.3,4,4.9,7.7,7.8,11.2L155,283
	c-3.3-3.9-6.2-8.1-8.8-12.6L154.5,265.7z M162.7,277.3c3,3.5,6.2,6.7,9.7,9.7l-6.1,7.3c-3.9-3.3-7.6-7-10.9-10.9L162.7,277.3z
	 M172.8,287.3c3.5,2.9,7.2,5.5,11.2,7.8l-4.8,8.3c-4.4-2.6-8.6-5.5-12.6-8.8L172.8,287.3z M184.5,295.5c3.9,2.3,8.1,4.2,12.4,5.8
	l-3.3,9c-4.8-1.8-9.5-4-13.9-6.5L184.5,295.5z M197.4,301.5c4.2,1.5,8.7,2.7,13.2,3.5l-1.7,9.4c-5.1-0.9-10-2.2-14.8-4L197.4,301.5z
	 M211.2,305.1c4.4,0.8,9,1.2,13.6,1.2v9.6c-5.2,0-10.3-0.5-15.3-1.4L211.2,305.1z M225.4,306.3c4.6,0,9.2-0.4,13.6-1.2l1.7,9.4
	c-5,0.9-10.1,1.3-15.3,1.4V306.3z M239.6,305c4.5-0.8,8.9-2,13.2-3.5l3.3,9c-4.8,1.7-9.7,3-14.8,4L239.6,305z M253.3,301.3
	c4.3-1.6,8.4-3.6,12.4-5.8l4.8,8.3c-4.4,2.5-9.1,4.7-13.9,6.5L253.3,301.3z M266.2,295.2c4-2.3,7.7-4.9,11.2-7.8l6.1,7.3
	c-3.9,3.3-8.1,6.2-12.6,8.8L266.2,295.2z M277.8,287c3.5-3,6.7-6.2,9.7-9.7l7.3,6.1c-3.3,3.9-7,7.6-10.9,10.9L277.8,287z
	 M287.9,276.9c2.9-3.5,5.5-7.2,7.8-11.2l8.3,4.8c-2.6,4.4-5.5,8.6-8.8,12.6L287.9,276.9z M296,265.2c2.3-3.9,4.2-8.1,5.8-12.4l9,3.3
	c-1.8,4.8-4,9.5-6.5,13.9L296,265.2z M302,252.2c1.5-4.2,2.7-8.7,3.5-13.2l9.4,1.7c-0.9,5.1-2.2,10-4,14.8L302,252.2z M305.6,238.5
	c0.8-4.4,1.2-9,1.2-13.6h9.6c0,5.2-0.5,10.3-1.4,15.3L305.6,238.5z M306.8,224.3c0-4.6-0.4-9.2-1.2-13.6l9.4-1.7
	c0.9,5,1.3,10.1,1.4,15.3H306.8z M311.5,193.4l9.1-3.3c1.9,5.3,3.4,10.8,4.4,16.5l-9.5,1.7C314.6,203.2,313.3,198.2,311.5,193.4z
	 M311.4,192.9c-1.8-4.9-4-9.5-6.6-14l8.4-4.8c2.8,4.9,5.3,10.1,7.3,15.5L311.4,192.9z M304.5,178.4c-2.6-4.5-5.6-8.7-8.9-12.6
	l7.4-6.2c3.7,4.4,6.9,9.1,9.8,14L304.5,178.4z M295.3,165.4c-3.3-3.9-7-7.6-10.9-10.9l6.2-7.4c4.4,3.7,8.4,7.8,12.1,12.1
	L295.3,165.4z M283.9,154c-3.9-3.3-8.2-6.3-12.6-8.9l4.8-8.4c5,2.9,9.6,6.2,14,9.8L283.9,154z M270.8,144.9c-4.4-2.6-9.1-4.8-14-6.6
	l3.3-9.1c5.4,2,10.6,4.4,15.5,7.3L270.8,144.9z M256.3,138.1c-4.8-1.7-9.8-3.1-14.9-4l1.7-9.5c5.7,1,11.2,2.5,16.5,4.4L256.3,138.1z
	 M240.8,134.1c-5-0.9-10.2-1.3-15.4-1.4V123c5.8,0,11.5,0.5,17.1,1.5L240.8,134.1z M224.8,132.7c-5.3,0-10.4,0.5-15.4,1.4l-1.7-9.5
	c5.6-1,11.3-1.5,17.1-1.5V132.7z M208.9,134.2c-5.1,0.9-10.1,2.2-14.9,4l-3.3-9.1c5.3-1.9,10.8-3.4,16.5-4.4L208.9,134.2z
	 M193.4,138.3c-4.9,1.8-9.5,4-14,6.6l-4.8-8.4c4.9-2.8,10.1-5.3,15.5-7.3L193.4,138.3z M179,145.2c-4.5,2.6-8.7,5.6-12.6,8.9
	l-6.2-7.4c4.4-3.7,9.1-6.9,14-9.8L179,145.2z M165.9,154.4c-3.9,3.3-7.6,7-10.9,10.9l-7.4-6.2c3.7-4.4,7.8-8.4,12.1-12.1
	L165.9,154.4z M154.6,165.8c-3.3,3.9-6.2,8.2-8.9,12.6l-8.4-4.8c2.9-4.9,6.2-9.6,9.8-14L154.6,165.8z M145.4,178.9
	c-2.6,4.4-4.8,9.1-6.6,14l-9.1-3.3c2-5.4,4.4-10.6,7.3-15.5L145.4,178.9z M138.7,193.4c-1.7,4.8-3.1,9.8-4,14.9l-9.5-1.7
	c1-5.7,2.5-11.2,4.4-16.5L138.7,193.4z M134.6,208.9c-0.9,5-1.3,10.2-1.4,15.4h-9.7c0-5.8,0.5-11.5,1.5-17.1L134.6,208.9z
	 M133.2,224.9c0,5.2,0.5,10.4,1.4,15.4l-9.5,1.7c-1-5.6-1.5-11.3-1.5-17.1H133.2z M134.7,240.8c0.9,5.1,2.2,10.1,4,14.9l-9.1,3.3
	c-1.9-5.3-3.4-10.8-4.4-16.5L134.7,240.8z M138.9,256.3c1.8,4.9,4,9.5,6.6,14l-8.4,4.8c-2.8-4.9-5.3-10.1-7.3-15.5L138.9,256.3z
	 M145.7,270.7c2.6,4.5,5.6,8.7,8.9,12.6l-7.4,6.2c-3.7-4.4-6.9-9.1-9.8-14L145.7,270.7z M155,283.8c3.3,3.9,7,7.6,10.9,10.9
	l-6.2,7.4c-4.4-3.7-8.4-7.8-12.1-12.1L155,283.8z M166.3,295.1c3.9,3.3,8.2,6.2,12.6,8.9l-4.8,8.4c-4.9-2.9-9.6-6.2-14-9.8
	L166.3,295.1z M179.5,304.2c4.4,2.6,9.1,4.8,14,6.6l-3.3,9.1c-5.4-2-10.6-4.4-15.5-7.3L179.5,304.2z M194,311
	c4.8,1.7,9.8,3.1,14.9,4l-1.7,9.5c-5.7-1-11.2-2.5-16.5-4.4L194,311z M209.4,315.1c5,0.9,10.2,1.3,15.4,1.4v9.7
	c-5.8,0-11.5-0.5-17.1-1.5L209.4,315.1z M225.4,316.4c5.2,0,10.4-0.5,15.4-1.4l1.7,9.5c-5.6,1-11.3,1.5-17.1,1.5V316.4z M241.4,315
	c5.1-0.9,10.1-2.2,14.9-4l3.3,9.1c-5.3,1.9-10.8,3.4-16.5,4.4L241.4,315z M256.8,310.8c4.9-1.8,9.5-4,14-6.6l4.8,8.4
	c-4.9,2.8-10.1,5.3-15.5,7.3L256.8,310.8z M271.3,304c4.5-2.6,8.7-5.6,12.6-8.9l6.2,7.4c-4.4,3.7-9.1,6.9-14,9.8L271.3,304z
	 M284.3,294.7c3.9-3.3,7.6-7,10.9-10.9l7.4,6.2c-3.7,4.4-7.8,8.4-12.1,12.1L284.3,294.7z M295.7,283.4c3.3-3.9,6.2-8.2,8.9-12.6
	l8.4,4.8c-2.9,5-6.2,9.6-9.8,14L295.7,283.4z M304.8,270.2c2.6-4.4,4.8-9.1,6.6-14l9.1,3.3c-2,5.4-4.4,10.6-7.3,15.5L304.8,270.2z
	 M311.5,255.7c1.7-4.8,3.1-9.8,4-14.9l9.5,1.7c-1,5.7-2.5,11.2-4.4,16.5L311.5,255.7z M315.6,240.3c0.9-5,1.3-10.2,1.4-15.4h9.7
	c0,5.8-0.5,11.5-1.5,17.1L315.6,240.3z M317,224.3c0-5.3-0.5-10.4-1.4-15.4l9.5-1.7c1,5.6,1.5,11.3,1.5,17.1H317z M321.2,189.9
	l9-3.3c2.1,5.9,3.8,12,4.9,18.2l-9.4,1.7C324.6,200.8,323.1,195.3,321.2,189.9z M321,189.4c-2-5.4-4.4-10.7-7.3-15.6l8.3-4.8
	c3.1,5.4,5.8,11.2,8,17.1L321,189.4z M313.4,173.3c-2.9-5-6.2-9.7-9.9-14.1l7.3-6.1c4,4.8,7.7,10,10.8,15.5L313.4,173.3z
	 M303.1,158.8c-3.7-4.4-7.8-8.5-12.2-12.2l6.1-7.3c4.8,4.1,9.3,8.6,13.4,13.4L303.1,158.8z M290.5,146.2c-4.4-3.7-9.1-7-14.1-9.9
	l4.8-8.3c5.5,3.2,10.6,6.8,15.5,10.8L290.5,146.2z M275.9,136c-5-2.9-10.2-5.3-15.6-7.3l3.3-9c6,2.2,11.7,4.9,17.1,8L275.9,136z
	 M259.8,128.5c-5.3-1.9-10.9-3.4-16.6-4.5l1.7-9.4c6.3,1.1,12.4,2.8,18.2,4.9L259.8,128.5z M242.6,124c-5.6-1-11.3-1.5-17.2-1.5
	v-9.6c6.4,0,12.7,0.6,18.8,1.6L242.6,124z M224.8,122.5c-5.9,0-11.6,0.5-17.2,1.5l-1.7-9.4c6.1-1.1,12.4-1.6,18.8-1.6V122.5z
	 M207.1,124.1c-5.7,1-11.3,2.5-16.6,4.5l-3.3-9c5.9-2.1,12-3.8,18.2-4.9L207.1,124.1z M189.9,128.7c-5.4,2-10.7,4.4-15.6,7.3
	l-4.8-8.3c5.4-3.1,11.2-5.8,17.1-8L189.9,128.7z M173.8,136.3c-5,2.9-9.7,6.2-14.1,9.9l-6.1-7.3c4.8-4,10-7.7,15.5-10.8L173.8,136.3
	z M159.3,146.6c-4.4,3.7-8.5,7.8-12.2,12.2l-7.3-6.1c4.1-4.8,8.6-9.3,13.4-13.4L159.3,146.6z M146.7,159.2c-3.7,4.4-7,9.1-9.9,14.1
	l-8.3-4.8c3.2-5.5,6.8-10.6,10.8-15.5L146.7,159.2z M136.6,173.8c-2.9,5-5.3,10.2-7.3,15.6l-9-3.3c2.2-6,4.9-11.7,8-17.1
	L136.6,173.8z M129.1,189.9c-1.9,5.3-3.4,10.9-4.5,16.6l-9.4-1.7c1.1-6.3,2.8-12.4,4.9-18.2L129.1,189.9z M124.5,207.1
	c-1,5.6-1.5,11.3-1.5,17.2h-9.6c0-6.4,0.6-12.7,1.6-18.8L124.5,207.1z M123,224.9c0,5.9,0.5,11.6,1.5,17.2l-9.4,1.7
	c-1.1-6.1-1.6-12.4-1.6-18.8H123z M124.6,242.6c1,5.7,2.5,11.3,4.5,16.6l-9,3.3c-2.1-5.9-3.8-12-4.9-18.2L124.6,242.6z M129.3,259.7
	c2,5.4,4.4,10.7,7.3,15.6l-8.3,4.8c-3.1-5.4-5.8-11.2-8-17.1L129.3,259.7z M136.9,275.8c2.9,5,6.2,9.7,9.9,14.1l-7.3,6.1
	c-4-4.8-7.7-10-10.8-15.5L136.9,275.8z M147.1,290.4c3.7,4.4,7.8,8.5,12.2,12.2l-6.1,7.3c-4.8-4.1-9.3-8.6-13.4-13.4L147.1,290.4z
	 M159.8,302.9c4.4,3.7,9.1,7,14.1,9.9l-4.8,8.3c-5.5-3.2-10.6-6.8-15.5-10.8L159.8,302.9z M174.3,313.1c5,2.9,10.2,5.3,15.6,7.3
	l-3.3,9c-6-2.2-11.7-4.9-17.1-8L174.3,313.1z M190.5,320.6c5.3,1.9,10.9,3.4,16.6,4.5l-1.7,9.4c-6.3-1.1-12.4-2.8-18.2-4.9
	L190.5,320.6z M207.6,325.2c5.6,1,11.3,1.5,17.2,1.5v9.6c-6.4,0-12.7-0.6-18.8-1.6L207.6,325.2z M225.4,326.7
	c5.9,0,11.6-0.5,17.2-1.5l1.7,9.4c-6.1,1.1-12.4,1.6-18.8,1.6V326.7z M243.1,325.1c5.7-1,11.3-2.5,16.6-4.5l3.3,9
	c-5.9,2.1-12,3.8-18.2,4.9L243.1,325.1z M260.3,320.4c5.4-2,10.7-4.4,15.6-7.3l4.8,8.3c-5.4,3.1-11.2,5.8-17.1,8L260.3,320.4z
	 M276.4,312.8c5-2.9,9.7-6.2,14.1-9.9l6.1,7.3c-4.8,4-10,7.7-15.5,10.8L276.4,312.8z M290.9,302.6c4.4-3.7,8.5-7.8,12.2-12.2
	l7.3,6.1c-4.1,4.8-8.6,9.3-13.4,13.4L290.9,302.6z M303.5,289.9c3.7-4.4,7-9.1,9.9-14.1l8.3,4.8c-3.2,5.5-6.8,10.6-10.8,15.5
	L303.5,289.9z M313.7,275.4c2.9-5,5.3-10.2,7.3-15.6l9,3.3c-2.2,6-4.9,11.7-8,17.1L313.7,275.4z M321.2,259.2
	c1.9-5.3,3.4-10.9,4.5-16.6l9.4,1.7c-1.1,6.3-2.8,12.4-4.9,18.2L321.2,259.2z M325.7,242c1-5.6,1.5-11.3,1.5-17.2h9.6
	c0,6.4-0.6,12.7-1.6,18.8L325.7,242z M327.2,224.3c0-5.9-0.5-11.6-1.5-17.2l9.4-1.7c1.1,6.1,1.6,12.4,1.6,18.8H327.2z M330.7,186.5
	l9.1-3.3c2.3,6.4,4.1,13.1,5.4,19.9l-9.5,1.7C334.5,198.5,332.8,192.4,330.7,186.5z M330.5,185.9c-2.2-6-4.9-11.7-8.1-17.2l8.4-4.8
	c3.4,5.9,6.4,12.2,8.8,18.7L330.5,185.9z M322.2,168.2c-3.2-5.5-6.9-10.7-10.9-15.5l7.4-6.2c4.4,5.3,8.4,10.9,11.9,16.9L322.2,168.2
	z M310.9,152.3c-4.1-4.9-8.6-9.4-13.5-13.5l6.2-7.4c5.3,4.5,10.2,9.4,14.7,14.7L310.9,152.3z M297,138.4c-4.8-4.1-10-7.7-15.5-10.9
	l4.8-8.4c6,3.5,11.6,7.5,16.9,11.9L297,138.4z M281,127.2c-5.5-3.1-11.2-5.8-17.2-8.1l3.3-9.1c6.5,2.4,12.8,5.3,18.7,8.8L281,127.2z
	 M263.2,119c-5.9-2.1-12-3.8-18.3-4.9l1.7-9.5c6.9,1.2,13.5,3,19.9,5.4L263.2,119z M244.3,114c-6.2-1.1-12.5-1.6-18.9-1.7v-9.7
	c7,0,13.9,0.6,20.6,1.8L244.3,114z M224.8,112.3c-6.5,0-12.8,0.6-18.9,1.7l-1.7-9.5c6.7-1.2,13.6-1.8,20.6-1.8V112.3z M205.3,114.1
	c-6.3,1.1-12.4,2.8-18.3,4.9l-3.3-9.1c6.4-2.3,13.1-4.1,19.9-5.4L205.3,114.1z M186.5,119.2c-6,2.2-11.7,4.9-17.2,8.1l-4.8-8.4
	c5.9-3.4,12.2-6.4,18.7-8.8L186.5,119.2z M168.8,127.5c-5.5,3.2-10.7,6.9-15.5,10.9L147,131c5.3-4.4,10.9-8.4,16.9-11.9L168.8,127.5
	z M152.8,138.8c-4.9,4.1-9.4,8.6-13.5,13.5l-7.4-6.2c4.5-5.3,9.4-10.2,14.7-14.7L152.8,138.8z M139,152.7c-4.1,4.9-7.7,10-10.9,15.5
	l-8.4-4.8c3.5-6,7.5-11.6,11.9-16.9L139,152.7z M127.8,168.7c-3.1,5.5-5.8,11.2-8.1,17.2l-9.1-3.3c2.4-6.5,5.3-12.8,8.8-18.7
	L127.8,168.7z M119.5,186.5c-2.1,5.9-3.8,12-4.9,18.3l-9.5-1.7c1.2-6.9,3-13.5,5.4-19.9L119.5,186.5z M114.5,205.3
	c-1.1,6.2-1.6,12.5-1.7,18.9h-9.7c0-7,0.6-13.9,1.8-20.6L114.5,205.3z M112.9,224.9c0,6.5,0.6,12.8,1.7,18.9l-9.5,1.7
	c-1.2-6.7-1.8-13.6-1.8-20.6H112.9z M114.6,244.4c1.1,6.3,2.8,12.4,4.9,18.3l-9.1,3.3c-2.3-6.4-4.1-13.1-5.4-19.9L114.6,244.4z
	 M119.7,263.2c2.2,6,4.9,11.7,8.1,17.2l-8.4,4.8c-3.4-5.9-6.4-12.2-8.8-18.7L119.7,263.2z M128.1,280.9c3.2,5.5,6.9,10.7,10.9,15.5
	l-7.4,6.2c-4.4-5.3-8.4-10.9-11.9-16.9L128.1,280.9z M139.3,296.9c4.1,4.9,8.6,9.4,13.5,13.5l-6.2,7.4c-5.3-4.5-10.2-9.4-14.7-14.7
	L139.3,296.9z M153.2,310.7c4.8,4.1,10,7.7,15.5,10.9l-4.8,8.4c-6-3.5-11.6-7.5-16.9-11.9L153.2,310.7z M169.3,321.9
	c5.5,3.1,11.2,5.8,17.2,8.1l-3.3,9.1c-6.5-2.4-12.8-5.3-18.7-8.8L169.3,321.9z M187,330.1c5.9,2.1,12,3.8,18.3,4.9l-1.7,9.5
	c-6.9-1.2-13.5-3-19.9-5.4L187,330.1z M205.9,335.2c6.2,1.1,12.5,1.6,18.9,1.7v9.7c-7,0-13.9-0.6-20.6-1.8L205.9,335.2z
	 M225.4,336.8c6.5,0,12.8-0.6,18.9-1.7l1.7,9.5c-6.7,1.2-13.6,1.8-20.6,1.8V336.8z M244.9,335.1c6.3-1.1,12.4-2.8,18.3-4.9l3.3,9.1
	c-6.4,2.3-13.1,4.1-19.9,5.4L244.9,335.1z M263.8,330c6-2.2,11.7-4.9,17.2-8.1l4.8,8.4c-5.9,3.4-12.2,6.4-18.7,8.8L263.8,330z
	 M281.5,321.6c5.5-3.2,10.7-6.9,15.5-10.9l6.2,7.4c-5.3,4.4-10.9,8.4-16.9,11.9L281.5,321.6z M297.4,310.3
	c4.9-4.1,9.4-8.6,13.5-13.5l7.4,6.2c-4.5,5.3-9.4,10.2-14.7,14.7L297.4,310.3z M311.2,296.4c4.1-4.8,7.7-10,10.9-15.5l8.4,4.8
	c-3.5,6-7.5,11.6-11.9,16.9L311.2,296.4z M322.4,280.4c3.1-5.5,5.8-11.2,8.1-17.2l9.1,3.3c-2.4,6.5-5.3,12.8-8.8,18.7L322.4,280.4z
	 M330.7,262.7c2.1-5.9,3.8-12,4.9-18.3l9.5,1.7c-1.2,6.9-3,13.5-5.4,19.9L330.7,262.7z M335.7,243.8c1.1-6.2,1.6-12.5,1.7-18.9h9.7
	c0,7-0.6,13.9-1.8,20.6L335.7,243.8z M337.3,224.3c0-6.5-0.6-12.8-1.7-18.9l9.5-1.7c1.2,6.7,1.8,13.6,1.8,20.6H337.3z M340.4,182.9
	l8.9-3.3c2.5,7,4.5,14.2,5.8,21.6l-9.4,1.7C344.5,196.1,342.7,189.4,340.4,182.9z M340.2,182.4c-2.4-6.5-5.3-12.8-8.8-18.8l8.2-4.7
	c3.7,6.5,6.9,13.3,9.5,20.3L340.2,182.4z M331.1,163.1c-3.5-6-7.5-11.6-11.9-17l7.3-6.1c4.8,5.7,9.1,11.9,12.9,18.4L331.1,163.1z
	 M318.8,145.6c-2.2-2.6-4.6-5.2-7.1-7.7c-2.5-2.5-5-4.8-7.7-7.1l6.1-7.3c5.7,4.8,11.1,10.2,15.9,15.9L318.8,145.6z M303.6,130.6
	c-5.4-4.5-11-8.5-17-11.9l4.7-8.2c6.5,3.8,12.6,8.1,18.4,12.9L303.6,130.6z M286.1,118.3c-6-3.5-12.3-6.4-18.8-8.8l3.3-8.9
	c7.1,2.6,13.9,5.8,20.3,9.5L286.1,118.3z M266.7,109.3c-6.5-2.3-13.2-4.1-20.1-5.3l1.7-9.4c7.4,1.3,14.7,3.3,21.6,5.8L266.7,109.3z
	 M246.1,103.9c-6.8-1.2-13.7-1.8-20.7-1.8v-9.6c7.6,0,15.1,0.7,22.4,2L246.1,103.9z M224.8,102.1c-7,0-13.9,0.6-20.7,1.8l-1.7-9.4
	c7.3-1.3,14.8-1.9,22.4-2V102.1z M203.5,104c-6.9,1.2-13.6,3-20.1,5.3l-3.2-8.9c7-2.5,14.2-4.5,21.6-5.8L203.5,104z M183,109.5
	c-6.5,2.4-12.8,5.3-18.8,8.8l-4.7-8.2c6.5-3.7,13.3-6.9,20.3-9.5L183,109.5z M163.6,118.6c-6,3.5-11.6,7.5-17,11.9l-6.1-7.3
	c5.7-4.8,11.9-9.1,18.4-12.9L163.6,118.6z M146.2,130.9c-2.6,2.2-5.2,4.6-7.7,7.1c-2.5,2.5-4.8,5-7.1,7.7l-7.3-6.1
	c4.8-5.7,10.2-11.1,15.9-15.9L146.2,130.9z M131.1,146.1c-4.5,5.4-8.5,11-11.9,17l-8.2-4.7c3.8-6.5,8.1-12.6,12.9-18.4L131.1,146.1z
	 M118.9,163.6c-3.5,6-6.4,12.3-8.8,18.8l-8.9-3.3c2.6-7.1,5.8-13.9,9.5-20.3L118.9,163.6z M109.9,182.9c-2.3,6.5-4.1,13.2-5.3,20.1
	l-9.4-1.7c1.3-7.4,3.3-14.7,5.8-21.6L109.9,182.9z M104.4,203.6c-1.2,6.8-1.8,13.7-1.8,20.7h-9.6c0-7.6,0.7-15.1,2-22.4L104.4,203.6
	z M102.7,224.9c0,7,0.6,13.9,1.8,20.7l-9.4,1.7c-1.3-7.3-1.9-14.8-2-22.4H102.7z M104.5,246.1c1.2,6.9,3,13.6,5.3,20.1l-8.9,3.2
	c-2.5-7-4.5-14.2-5.8-21.6L104.5,246.1z M110.1,266.7c2.4,6.5,5.3,12.8,8.8,18.8l-8.2,4.7c-3.7-6.5-6.9-13.3-9.5-20.3L110.1,266.7z
	 M119.2,286.1c3.5,6,7.5,11.6,11.9,17l-7.3,6.1c-4.8-5.7-9.1-11.9-12.9-18.4L119.2,286.1z M131.5,303.5c2.2,2.6,4.6,5.2,7.1,7.7
	c2.5,2.5,5,4.8,7.7,7.1l-6.1,7.3c-5.7-4.8-11.1-10.2-15.9-15.9L131.5,303.5z M146.6,318.6c5.4,4.5,11,8.5,17,11.9l-4.7,8.2
	c-6.5-3.8-12.6-8.1-18.4-12.9L146.6,318.6z M164.1,330.8c6,3.5,12.3,6.4,18.8,8.8l-3.3,8.9c-7.1-2.6-13.9-5.8-20.3-9.5L164.1,330.8z
	 M183.5,339.8c6.5,2.3,13.2,4.1,20.1,5.3l-1.7,9.4c-7.4-1.3-14.7-3.3-21.6-5.8L183.5,339.8z M204.1,345.2c6.8,1.2,13.7,1.8,20.7,1.8
	v9.6c-7.6,0-15.1-0.7-22.4-2L204.1,345.2z M225.4,347c7,0,13.9-0.6,20.7-1.8l1.7,9.4c-7.3,1.3-14.8,1.9-22.4,2V347z M246.7,345.1
	c6.9-1.2,13.6-3,20.1-5.3l3.2,8.9c-7,2.5-14.2,4.5-21.6,5.8L246.7,345.1z M267.3,339.6c6.5-2.4,12.8-5.3,18.8-8.8l4.7,8.2
	c-6.5,3.7-13.3,6.9-20.3,9.5L267.3,339.6z M286.6,330.5c6-3.5,11.6-7.5,17-11.9l6.1,7.3c-5.7,4.8-11.9,9.1-18.4,12.9L286.6,330.5z
	 M304,318.2c2.6-2.2,5.2-4.6,7.7-7.1c2.5-2.5,4.8-5,7.1-7.7l7.3,6.1c-4.8,5.7-10.2,11.1-15.9,15.9L304,318.2z M319.1,303.1
	c4.5-5.4,8.5-11,11.9-17l8.2,4.7c-3.8,6.5-8.1,12.6-12.9,18.4L319.1,303.1z M331.4,285.6c3.5-6,6.4-12.3,8.8-18.8l8.9,3.3
	c-2.6,7.1-5.8,13.9-9.5,20.3L331.4,285.6z M340.4,266.2c2.3-6.5,4.1-13.2,5.3-20.1l9.4,1.7c-1.3,7.4-3.3,14.7-5.8,21.6L340.4,266.2z
	 M345.8,245.6c1.2-6.8,1.8-13.7,1.8-20.7h9.6c0,7.6-0.7,15.1-2,22.4L345.8,245.6z M347.6,224.3c0-7-0.6-13.9-1.8-20.7l9.4-1.7
	c1.3,7.3,1.9,14.8,2,22.4H347.6z M349.9,179.5l9-3.3c2.7,7.5,4.8,15.3,6.3,23.4l-9.5,1.7C354.4,193.8,352.4,186.5,349.9,179.5z
	 M349.7,178.9c-2.6-7.1-5.8-13.9-9.5-20.5l8.3-4.8c4,7,7.5,14.3,10.3,22L349.7,178.9z M339.9,158c-3.8-6.5-8.1-12.6-13-18.4l7.3-6.1
	c5.2,6.2,9.8,12.8,13.9,19.8L339.9,158z M326.6,139.1c-2.4-2.9-5-5.7-7.7-8.3c-2.7-2.7-5.5-5.2-8.3-7.7l6.1-7.3
	c6.2,5.2,11.9,11,17.2,17.2L326.6,139.1z M310.1,122.8c-5.8-4.9-12-9.2-18.5-13l4.8-8.3c7,4.1,13.6,8.7,19.8,13.9L310.1,122.8z
	 M291.2,109.5c-6.5-3.8-13.4-7-20.5-9.5l3.3-9c7.6,2.8,15,6.3,22,10.3L291.2,109.5z M270.2,99.8c-7-2.5-14.3-4.5-21.8-5.8l1.7-9.5
	c8,1.4,15.8,3.5,23.4,6.3L270.2,99.8z M247.9,93.9c-7.4-1.3-14.9-1.9-22.5-1.9v-9.7c8.2,0,16.3,0.7,24.2,2.1L247.9,93.9z M224.8,92
	c-7.6,0-15.1,0.7-22.5,1.9l-1.7-9.5c7.9-1.4,15.9-2.1,24.2-2.1V92z M201.8,94c-7.4,1.3-14.7,3.2-21.8,5.8l-3.3-9
	c7.5-2.7,15.3-4.8,23.4-6.3L201.8,94z M179.5,100c-7.1,2.6-13.9,5.8-20.5,9.5l-4.8-8.3c7-4,14.3-7.5,22-10.3L179.5,100z
	 M158.5,109.8c-6.5,3.8-12.6,8.1-18.5,13l-6.1-7.3c6.2-5.2,12.8-9.8,19.8-13.9L158.5,109.8z M139.7,123.1c-2.9,2.4-5.7,5-8.3,7.7
	c-2.7,2.7-5.2,5.5-7.7,8.3l-7.3-6.1c5.2-6.2,11-11.9,17.2-17.2L139.7,123.1z M123.3,139.5c-4.9,5.8-9.2,12-13,18.4l-8.3-4.8
	c4.1-7,8.7-13.6,13.9-19.8L123.3,139.5z M110.1,158.5c-3.8,6.5-7,13.4-9.5,20.5l-9-3.3c2.8-7.6,6.3-15,10.3-22L110.1,158.5z
	 M100.3,179.5c-2.5,7-4.5,14.3-5.8,21.8l-9.5-1.7c1.4-8,3.5-15.8,6.3-23.4L100.3,179.5z M94.4,201.8c-1.3,7.4-1.9,14.9-1.9,22.5
	h-9.7c0-8.2,0.7-16.3,2.1-24.2L94.4,201.8z M92.5,224.9c0,7.6,0.7,15.1,1.9,22.5L85,249c-1.4-7.9-2.1-15.9-2.1-24.2H92.5z
	 M94.5,247.9c1.3,7.4,3.2,14.7,5.8,21.8l-9,3.3c-2.7-7.5-4.8-15.3-6.3-23.4L94.5,247.9z M100.5,270.2c2.6,7.1,5.8,13.9,9.5,20.5
	l-8.3,4.8c-4-7-7.5-14.3-10.3-22L100.5,270.2z M110.3,291.2c3.8,6.5,8.1,12.6,13,18.4l-7.3,6.1c-5.2-6.2-9.8-12.8-13.9-19.8
	L110.3,291.2z M123.7,310c2.4,2.9,5,5.7,7.7,8.3c2.7,2.7,5.5,5.2,8.3,7.7l-6.1,7.3c-6.2-5.2-11.9-11-17.2-17.2L123.7,310z
	 M140.1,326.4c5.8,4.9,12,9.2,18.5,13l-4.8,8.3c-7-4.1-13.6-8.7-19.8-13.9L140.1,326.4z M159,339.6c6.5,3.8,13.4,7,20.5,9.5l-3.3,9
	c-7.6-2.8-15-6.3-22-10.3L159,339.6z M180,349.4c7,2.5,14.3,4.5,21.8,5.8l-1.7,9.5c-8-1.4-15.8-3.5-23.4-6.3L180,349.4z
	 M202.3,355.2c7.4,1.3,14.9,1.9,22.5,1.9v9.7c-8.2,0-16.3-0.7-24.2-2.1L202.3,355.2z M225.4,357.2c7.6,0,15.1-0.7,22.5-1.9l1.7,9.5
	c-7.9,1.4-15.9,2.1-24.2,2.1V357.2z M248.4,355.1c7.4-1.3,14.7-3.2,21.8-5.8l3.3,9c-7.5,2.7-15.3,4.8-23.4,6.3L248.4,355.1z
	 M270.7,349.2c7.1-2.6,13.9-5.8,20.5-9.5l4.8,8.3c-7,4-14.3,7.5-22,10.3L270.7,349.2z M291.7,339.3c6.5-3.8,12.6-8.1,18.5-13
	l6.1,7.3c-6.2,5.2-12.8,9.8-19.8,13.9L291.7,339.3z M310.6,326c2.9-2.4,5.7-5,8.3-7.7c2.7-2.7,5.2-5.5,7.7-8.3l7.3,6.1
	c-5.2,6.2-11,11.9-17.2,17.2L310.6,326z M326.9,309.6c4.9-5.8,9.2-12,13-18.4l8.3,4.8c-4.1,7-8.7,13.6-13.9,19.8L326.9,309.6z
	 M340.2,290.7c3.8-6.5,7-13.4,9.5-20.5l9,3.3c-2.8,7.6-6.3,15-10.3,22L340.2,290.7z M349.9,269.7c2.5-7,4.5-14.3,5.8-21.8l9.5,1.7
	c-1.4,8-3.5,15.8-6.3,23.4L349.9,269.7z M355.8,247.3c1.3-7.4,1.9-14.9,1.9-22.5h9.7c0,8.2-0.7,16.3-2.1,24.2L355.8,247.3z
	 M357.7,224.3c0-7.6-0.7-15.1-1.9-22.5l9.5-1.7c1.4,7.9,2.1,15.9,2.1,24.2H357.7z M359.5,176l8.9-3.2c2.9,8.1,5.2,16.4,6.7,25.1
	l-9.4,1.7C364.3,191.4,362.2,183.6,359.5,176z M359.3,175.5c-2.8-7.6-6.2-15-10.3-22.1l8.2-4.7c4.3,7.5,8,15.3,11,23.6L359.3,175.5z
	 M348.7,152.9c-4.1-7-8.7-13.6-14-19.9l7.3-6.1c5.6,6.6,10.5,13.7,14.9,21.3L348.7,152.9z M334.4,132.6c-2.6-3.1-5.4-6.1-8.3-9
	c-2.9-2.9-5.9-5.6-9-8.3l6.1-7.3c6.7,5.6,12.8,11.8,18.4,18.4L334.4,132.6z M316.7,115c-6.3-5.3-12.9-9.9-19.9-14l4.7-8.2
	c7.5,4.4,14.6,9.4,21.3,14.9L316.7,115z M296.3,100.7c-7.1-4.1-14.4-7.5-22.1-10.3l3.3-8.9c8.2,3,16.1,6.7,23.6,11L296.3,100.7z
	 M273.7,90.2c-7.6-2.7-15.5-4.8-23.5-6.2l1.7-9.4c8.6,1.5,17,3.8,25.1,6.7L273.7,90.2z M249.7,83.8c-7.9-1.4-16-2.1-24.3-2.1v-9.6
	c8.8,0,17.5,0.8,25.9,2.3L249.7,83.8z M224.8,81.8c-8.2,0-16.3,0.7-24.3,2.1l-1.7-9.4c8.4-1.5,17.1-2.2,25.9-2.3V81.8z M200,83.9
	c-8,1.4-15.9,3.5-23.5,6.2l-3.2-8.9c8.1-2.9,16.4-5.2,25.1-6.7L200,83.9z M176,90.4c-7.6,2.8-15,6.2-22.1,10.3l-4.7-8.2
	c7.5-4.3,15.3-8,23.6-11L176,90.4z M153.4,101c-7,4.1-13.6,8.7-19.9,14l-6.1-7.3c6.6-5.6,13.7-10.6,21.3-14.9L153.4,101z
	 M133.1,115.3c-3.1,2.6-6.1,5.4-9,8.3c-2.9,2.9-5.6,5.9-8.3,9l-7.3-6.1c5.6-6.6,11.8-12.8,18.4-18.4L133.1,115.3z M115.5,133
	c-5.3,6.3-9.9,12.9-14,19.9l-8.2-4.7c4.4-7.5,9.4-14.6,14.9-21.3L115.5,133z M101.2,153.4c-4.1,7.1-7.5,14.4-10.3,22.1l-8.9-3.2
	c3-8.2,6.7-16.1,11-23.6L101.2,153.4z M90.7,176c-2.7,7.6-4.8,15.4-6.2,23.5l-9.4-1.7c1.5-8.6,3.8-17,6.7-25.1L90.7,176z M84.4,200
	c-1.4,7.9-2.1,16-2.1,24.3h-9.6c0-8.8,0.8-17.5,2.3-25.9L84.4,200z M82.3,224.9c0,8.2,0.7,16.3,2.1,24.3l-9.4,1.7
	c-1.5-8.4-2.2-17.1-2.3-25.9H82.3z M84.5,249.7c1.4,8,3.5,15.9,6.2,23.5l-8.9,3.2c-2.9-8.1-5.2-16.4-6.7-25.1L84.5,249.7z
	 M90.9,273.7c2.8,7.6,6.2,15,10.3,22.1l-8.2,4.7c-4.3-7.5-8-15.3-11-23.5L90.9,273.7z M101.5,296.2c4.1,7,8.7,13.6,14,19.9l-7.3,6.1
	c-5.6-6.6-10.5-13.7-14.9-21.3L101.5,296.2z M115.9,316.6c2.6,3.1,5.4,6.1,8.3,9c2.9,2.9,5.9,5.6,9,8.3l-6.1,7.3
	c-6.6-5.6-12.8-11.8-18.4-18.4L115.9,316.6z M133.5,334.2c6.3,5.3,12.9,9.9,19.9,14l-4.7,8.2c-7.5-4.4-14.6-9.4-21.3-14.9
	L133.5,334.2z M153.9,348.5c7.1,4.1,14.4,7.5,22.1,10.3l-3.2,8.9c-8.2-3-16.1-6.7-23.6-11L153.9,348.5z M176.5,359
	c7.6,2.7,15.5,4.8,23.5,6.2l-1.7,9.4c-8.6-1.5-17-3.8-25.1-6.7L176.5,359z M200.6,365.3c7.9,1.4,16.1,2.1,24.3,2.1v9.6
	c-8.8,0-17.5-0.8-25.9-2.3L200.6,365.3z M225.4,367.4c8.2,0,16.3-0.7,24.3-2.1l1.7,9.4c-8.4,1.5-17.1,2.2-25.9,2.3V367.4z
	 M250.2,365.2c8-1.4,15.9-3.5,23.5-6.2l3.2,8.9c-8.1,2.9-16.4,5.2-25.1,6.7L250.2,365.2z M274.2,358.8c7.6-2.8,15-6.2,22.1-10.3
	l4.7,8.2c-7.5,4.3-15.3,8-23.6,11L274.2,358.8z M296.8,348.2c7-4.1,13.6-8.7,19.9-14l6.1,7.3c-6.6,5.6-13.7,10.5-21.3,14.9
	L296.8,348.2z M317.1,333.8c3.1-2.6,6.1-5.4,9-8.3c2.9-2.9,5.6-5.9,8.3-9l7.3,6.1c-5.6,6.6-11.8,12.8-18.4,18.4L317.1,333.8z
	 M334.7,316.1c5.3-6.3,9.9-12.9,14-19.9l8.2,4.7c-4.4,7.5-9.4,14.6-14.9,21.3L334.7,316.1z M349,295.8c4.1-7.1,7.5-14.4,10.3-22.1
	l8.9,3.3c-3,8.2-6.7,16.1-11,23.5L349,295.8z M359.5,273.2c2.7-7.6,4.8-15.5,6.2-23.5l9.4,1.7c-1.5,8.6-3.8,17-6.7,25.1L359.5,273.2
	z M365.8,249.1c1.4-7.9,2.1-16,2.1-24.3h9.6c0,8.8-0.8,17.5-2.3,25.9L365.8,249.1z M367.9,224.3c0-8.2-0.7-16.3-2.1-24.3l9.4-1.7
	c1.5,8.4,2.2,17.1,2.3,25.9H367.9z M369,172.5l9-3.3c3.1,8.6,5.5,17.6,7.2,26.8l-9.5,1.7C374.2,189.1,372,180.7,369,172.5z
	 M368.8,172c-3-8.2-6.7-16.1-11-23.7l8.3-4.8c4.6,8,8.6,16.4,11.8,25.2L368.8,172z M357.5,147.8c-4.3-7.5-9.4-14.6-15-21.4l7.3-6.1
	c5.9,7.1,11.3,14.7,15.9,22.7L357.5,147.8z M342.2,126c-2.8-3.3-5.7-6.5-8.9-9.6c-3.1-3.1-6.3-6.1-9.6-8.9l6.1-7.3
	c7.1,6,13.7,12.6,19.7,19.7L342.2,126z M323.2,107.2c-6.7-5.6-13.9-10.6-21.4-15l4.8-8.3c8,4.7,15.6,10,22.7,15.9L323.2,107.2z
	 M301.4,91.9c-7.6-4.4-15.5-8.1-23.7-11l3.3-9c8.8,3.2,17.2,7.2,25.2,11.8L301.4,91.9z M277.2,80.6c-8.2-2.9-16.6-5.2-25.2-6.7
	l1.7-9.5c9.2,1.6,18.2,4.1,26.8,7.2L277.2,80.6z M251.4,73.8c-8.5-1.5-17.2-2.2-26-2.2V62c9.4,0,18.7,0.8,27.7,2.4L251.4,73.8z
	 M224.8,71.6c-8.8,0-17.5,0.8-26,2.2l-1.7-9.5c9-1.6,18.3-2.4,27.7-2.4V71.6z M198.2,73.9c-8.6,1.5-17,3.8-25.2,6.7l-3.3-9
	c8.6-3.1,17.6-5.5,26.8-7.2L198.2,73.9z M172.5,80.8c-8.2,3-16.1,6.7-23.7,11l-4.8-8.3c8-4.6,16.4-8.6,25.2-11.8L172.5,80.8z
	 M148.4,92.2c-7.5,4.3-14.6,9.4-21.4,15l-6.1-7.3c7.1-5.9,14.7-11.3,22.7-15.9L148.4,92.2z M126.6,107.5c-3.3,2.8-6.5,5.7-9.6,8.9
	c-3.1,3.1-6.1,6.3-8.9,9.6l-7.3-6.1c6-7.1,12.6-13.7,19.7-19.7L126.6,107.5z M107.7,126.5c-5.6,6.7-10.6,13.9-15,21.4l-8.3-4.8
	c4.7-8,10-15.6,15.9-22.7L107.7,126.5z M92.4,148.3c-4.4,7.6-8.1,15.5-11,23.7l-9-3.3c3.2-8.8,7.2-17.2,11.8-25.2L92.4,148.3z
	 M81.2,172.5c-2.9,8.2-5.2,16.6-6.7,25.2L65,196c1.6-9.2,4.1-18.2,7.2-26.8L81.2,172.5z M74.4,198.3c-1.5,8.5-2.2,17.2-2.2,26h-9.7
	c0-9.4,0.8-18.7,2.4-27.7L74.4,198.3z M72.2,224.9c0,8.8,0.8,17.5,2.2,26l-9.5,1.7c-1.6-9-2.4-18.3-2.4-27.7H72.2z M74.5,251.4
	c1.5,8.6,3.8,17,6.7,25.2l-9,3.3c-3.1-8.6-5.5-17.6-7.2-26.8L74.5,251.4z M81.4,277.2c3,8.2,6.7,16.1,11,23.7l-8.3,4.8
	c-4.6-8-8.6-16.4-11.8-25.2L81.4,277.2z M92.7,301.3c4.3,7.5,9.4,14.6,15,21.3l-7.3,6.1c-5.9-7.1-11.3-14.7-15.9-22.7L92.7,301.3z
	 M108.1,323.1c2.8,3.3,5.7,6.5,8.9,9.6c3.1,3.1,6.3,6.1,9.6,8.9l-6.1,7.3c-7.1-6-13.7-12.6-19.7-19.7L108.1,323.1z M127,342
	c6.7,5.6,13.9,10.6,21.4,15l-4.8,8.3c-8-4.7-15.6-10-22.7-15.9L127,342z M148.8,357.3c7.6,4.4,15.5,8.1,23.7,11l-3.3,9
	c-8.8-3.2-17.2-7.2-25.2-11.8L148.8,357.3z M173.1,368.5c8.2,2.9,16.6,5.2,25.2,6.7l-1.7,9.5c-9.2-1.6-18.2-4.1-26.8-7.2
	L173.1,368.5z M198.8,375.3c8.5,1.5,17.2,2.2,26,2.2v9.7c-9.4,0-18.7-0.8-27.7-2.4L198.8,375.3z M225.4,377.5c8.8,0,17.5-0.8,26-2.2
	l1.7,9.5c-9,1.6-18.3,2.4-27.7,2.4V377.5z M252,375.2c8.6-1.5,17-3.8,25.2-6.7l3.3,9c-8.6,3.1-17.6,5.5-26.8,7.2L252,375.2z
	 M277.7,368.3c8.2-3,16.1-6.7,23.7-11l4.8,8.3c-8,4.6-16.4,8.6-25.2,11.8L277.7,368.3z M301.9,357c7.5-4.3,14.6-9.4,21.3-15l6.1,7.3
	c-7.1,5.9-14.7,11.3-22.7,15.9L301.9,357z M323.7,341.6c3.3-2.8,6.5-5.8,9.6-8.9c3.1-3.1,6.1-6.3,8.9-9.6l7.3,6.1
	c-6,7.1-12.6,13.7-19.7,19.7L323.7,341.6z M342.5,322.7c5.6-6.7,10.6-13.9,15-21.4l8.3,4.8c-4.7,8-10,15.6-15.9,22.7L342.5,322.7z
	 M357.8,300.8c4.4-7.6,8.1-15.5,11-23.7l9,3.3c-3.2,8.8-7.2,17.2-11.8,25.2L357.8,300.8z M369,276.6c2.9-8.2,5.2-16.6,6.7-25.2
	l9.5,1.7c-1.6,9.2-4.1,18.2-7.2,26.8L369,276.6z M375.8,250.9c1.5-8.5,2.2-17.2,2.2-26h9.7c0,9.4-0.8,18.7-2.4,27.7L375.8,250.9z
	 M378.1,224.3c0-8.8-0.8-17.5-2.2-26l9.5-1.7c1.6,9,2.4,18.3,2.4,27.7H378.1z M385.8,195.9c-1.6-9.2-4-18.2-7.2-26.9l8.9-3.2
	c3.3,9.2,5.9,18.7,7.6,28.5L385.8,195.9z M378.4,168.5c-3.2-8.7-7.1-17.2-11.8-25.3l8.2-4.7c4.9,8.5,9.1,17.4,12.5,26.8L378.4,168.5
	z M366.4,142.7c-4.6-8-10-15.6-16-22.8l7.3-6.1c6.3,7.5,12,15.6,17,24.2L366.4,142.7z M357.2,113.4l-7.3,6.1c-3-3.5-6.1-7-9.5-10.3
	c-3.3-3.3-6.8-6.5-10.3-9.5l6.1-7.3C343.9,98.8,350.9,105.8,357.2,113.4z M329.8,99.4c-7.2-6-14.8-11.4-22.8-16l4.7-8.2
	c8.5,5,16.6,10.7,24.2,17L329.8,99.4z M306.5,83c-8.1-4.7-16.5-8.6-25.3-11.8l3.2-8.9c9.3,3.4,18.3,7.6,26.8,12.5L306.5,83z
	 M280.7,71c-8.7-3.1-17.7-5.5-26.9-7.2l1.7-9.4c9.8,1.7,19.3,4.3,28.5,7.6L280.7,71z M253.2,63.8c-9.1-1.6-18.4-2.4-27.8-2.4v-9.6
	c10,0,19.9,0.9,29.5,2.6L253.2,63.8z M224.8,51.8v9.6c-9.4,0-18.7,0.8-27.8,2.4l-1.7-9.4C204.9,52.7,214.8,51.8,224.8,51.8z
	 M194.8,54.5l1.7,9.4c-9.2,1.6-18.2,4-26.9,7.2l-3.2-8.9C175.5,58.8,185,56.2,194.8,54.5z M165.8,62.3l3.2,8.9
	c-8.7,3.2-17.2,7.1-25.3,11.8l-4.7-8.2C147.5,69.9,156.5,65.7,165.8,62.3z M138.5,75.1l4.7,8.2c-8,4.6-15.6,10-22.8,16l-6.1-7.3
	C121.9,85.8,130,80.1,138.5,75.1z M113.9,92.5l6.1,7.3c-3.5,3-7,6.1-10.3,9.5c-3.3,3.3-6.5,6.8-9.5,10.3l-7.3-6.1
	C99.4,105.8,106.4,98.8,113.9,92.5z M92.6,113.8l7.3,6.1c-6,7.2-11.4,14.8-16,22.8l-8.2-4.7C80.6,129.4,86.3,121.4,92.6,113.8z
	 M75.4,138.5l8.2,4.7c-4.7,8.1-8.6,16.5-11.8,25.3l-8.9-3.2C66.3,155.9,70.5,147,75.4,138.5z M62.7,165.8l8.9,3.2
	c-3.1,8.7-5.5,17.7-7.2,26.9l-9.4-1.7C56.8,184.5,59.3,174.9,62.7,165.8z M54.9,194.8l9.4,1.7c-1.6,9.1-2.4,18.4-2.4,27.8h-9.6
	C52.4,214.2,53.3,204.4,54.9,194.8z M61.9,224.9c0,9.4,0.8,18.7,2.4,27.8l-9.4,1.7c-1.7-9.6-2.6-19.4-2.6-29.5H61.9z M64.4,253.2
	c1.6,9.2,4,18.2,7.2,26.9l-8.9,3.2c-3.3-9.2-5.9-18.7-7.6-28.5L64.4,253.2z M71.8,280.7c3.2,8.7,7.1,17.2,11.8,25.3l-8.2,4.7
	c-4.9-8.5-9.1-17.4-12.5-26.8L71.8,280.7z M83.9,306.4c4.6,8,10,15.6,16,22.8l-7.3,6.1c-6.3-7.5-12-15.6-17-24.2L83.9,306.4z
	 M93,335.8l7.3-6.1c3,3.5,6.1,7,9.5,10.3c3.3,3.3,6.8,6.5,10.3,9.5l-6.1,7.3C106.4,350.3,99.4,343.3,93,335.8z M120.5,349.8
	c7.2,6,14.8,11.4,22.8,16l-4.7,8.2c-8.5-5-16.6-10.7-24.2-17L120.5,349.8z M143.7,366.1c8.1,4.7,16.5,8.6,25.3,11.8l-3.2,8.9
	c-9.3-3.4-18.3-7.6-26.8-12.5L143.7,366.1z M169.6,378.1c8.7,3.1,17.7,5.5,26.9,7.2l-1.7,9.4c-9.8-1.7-19.3-4.3-28.5-7.6
	L169.6,378.1z M197,385.4c9.1,1.6,18.4,2.4,27.8,2.4v9.6c-10,0-19.9-0.9-29.5-2.6L197,385.4z M225.4,397.3v-9.6
	c9.4,0,18.7-0.8,27.8-2.4l1.7,9.4C245.3,396.4,235.4,397.3,225.4,397.3z M255.4,394.7l-1.7-9.4c9.2-1.6,18.2-4,26.9-7.2l3.2,8.9
	C274.8,390.3,265.2,392.9,255.4,394.7z M284.5,386.8l-3.2-8.9c8.7-3.2,17.2-7.1,25.3-11.8l4.7,8.2
	C302.7,379.2,293.8,383.4,284.5,386.8z M311.7,374l-4.7-8.2c8-4.6,15.6-10,22.8-16l6.1,7.3C328.3,363.4,320.2,369,311.7,374z
	 M336.3,356.7l-6.1-7.3c3.5-3,7-6.1,10.3-9.5c3.3-3.3,6.5-6.8,9.5-10.3l7.3,6.1C350.9,343.3,343.9,350.3,336.3,356.7z M357.6,335.3
	l-7.3-6.1c6-7.2,11.4-14.8,16-22.8l8.2,4.7C369.6,319.7,363.9,327.8,357.6,335.3z M374.8,310.7l-8.2-4.7c4.7-8.1,8.6-16.5,11.8-25.3
	l8.9,3.2C384,293.2,379.7,302.2,374.8,310.7z M387.6,283.4l-8.9-3.2c3.1-8.7,5.5-17.7,7.2-26.9l9.4,1.7
	C393.5,264.7,390.9,274.2,387.6,283.4z M395.3,254.3l-9.4-1.7c1.6-9.1,2.4-18.4,2.4-27.8h9.6C397.9,234.9,397,244.7,395.3,254.3z"/>
<g id="Layer_3">
</g>
<g id="pufusa_00000121248687815712322870000015548005692975379118_">
	
		<image style="overflow:visible;" width="3306" height="1928" id="pufusa" xlink:href="4BFC8E579FCFE110.png"  transform="matrix(0.5 0 0 0.5 744.3584 609.0203)">
	</image>
</g>
</svg>
